<?xml version="1.0" encoding="utf-8"?>
<!-- Generator: Adobe Illustrator 19.0.0, SVG Export Plug-In . SVG Version: 6.00 Build 0)  -->
<svg version="1.1" id="Capa_1" xmlns="http://www.w3.org/2000/svg" xmlns:xlink="http://www.w3.org/1999/xlink" x="0px" y="0px"
	 viewBox="-143 145 512 512" style="enable-background:new -143 145 512 512;" xml:space="preserve">
<style type="text/css">
	.st0{fill:#FFFFFF;}
</style>
<path class="st0" d="M257,337h-16v-64c0-70.6-57.4-128-128-128S-15,202.4-15,273v64h-16c-26.5,0-48,21.5-48,48v224
	c0,26.5,21.5,48,48,48h288c26.5,0,48-21.5,48-48V385C305,358.5,283.5,337,257,337z M27.7,273c0-47.1,38.3-85.3,85.3-85.3
	s85.3,38.3,85.3,85.3v64H27.7V273z"/>
</svg>
