<?xml version="1.0" encoding="UTF-8" standalone="no"?>
<svg width="46px" height="52px" viewBox="0 0 46 52" version="1.1" xmlns="http://www.w3.org/2000/svg" xmlns:xlink="http://www.w3.org/1999/xlink">
    <!-- Generator: Sketch 50.2 (55047) - http://www.bohemiancoding.com/sketch -->
    <title>XMLID_3_</title>
    <desc>Created with Sketch.</desc>
    <g id="Page-1" stroke="none" stroke-width="1" fill="none" fill-rule="evenodd">
        <g id="Landing-Page-Cubo" transform="translate(-661.000000, -116.000000)" fill="white" fill-rule="nonzero">
            <g id="XMLID_3_" transform="translate(661.000000, 116.000000)">
                <path d="M45.9988256,16.246464 C45.9988256,15.6365956 46.0739852,14.7217929 45.0217513,14.1881581 C44.4204749,13.8832239 43.5937197,13.9594574 43.0676028,14.3406252 L22.7745213,27.7577304 L2.85723768,14.3406252 C2.33112076,13.9594574 1.57952515,13.8832239 0.97824866,14.1881581 C-0.0739851927,14.6455594 0.00117436814,15.560362 0.00117436814,16.246464 L0.00117436814,37.5918586 C0.00117436814,37.6680922 0.076333929,37.8205593 0.15149349,37.8967928 L0.602450855,38.1254935 L2.70691856,39.4976974 L21.7222875,51.6950658 C22.0980853,51.9237664 22.5490426,52 22.7745213,52 C23.0751596,52 23.5261169,51.9237664 23.8267552,51.6950658 L43.2179219,39.4976974 L45.3223896,38.201727 L45.8485065,37.8205593 C45.9236661,37.7443257 45.9988256,37.6680922 45.9988256,37.5156251 L45.9988256,16.246464 Z M20.8955323,46.7398849 L2.85723768,35.1523849 L2.85723768,19.6007403 L20.8955323,31.2644738 L20.8955323,46.7398849 Z M42.691805,35.1523849 L24.6535103,46.7398849 L24.6535103,31.2644738 L42.691805,19.6007403 L42.691805,35.1523849 Z" id="XMLID_5_"></path>
                <path d="M41.8486708,10.6785714 L24.1431493,0.0746753247 C24.0674847,0.0746753247 24.0674847,0 23.99182,0 C23.99182,0 23.9161554,0 23.9161554,0 L23.8404908,0 C23.8404908,0 23.7648262,0 23.7648262,0 C23.6891616,0 23.6891616,0 23.6891616,0 L23.6134969,0 C23.5378323,0 23.4621677,0 23.3108384,0 L23.2351738,0 C23.1595092,0 23.1595092,0 23.1595092,0 L23.0838446,0 C23.0838446,0 23.00818,0 23.00818,0 L22.7811861,0.0746753247 C22.7811861,0.0746753247 22.7055215,0.0746753247 22.7055215,0.149350649 L22.6298569,0.149350649 C22.6298569,0.149350649 22.5541922,0.149350649 22.5541922,0.224025974 L5.15132924,10.8279221 C5.07566462,10.9025974 5,10.9772727 5,11.0519481 C5,11.1266234 5.07566462,11.275974 5.15132924,11.3506494 L7.87525562,13.2175325 C7.95092025,13.2922078 8.10224949,13.2922078 8.25357873,13.2175325 L21.192229,5.37662338 L21.192229,21.2824675 L21.2678937,21.2824675 C21.2678937,21.2824675 21.2678937,21.1331169 21.2678937,21.1331169 C21.2678937,22.2532468 22.1758691,23 23.2351738,23 C24.3701431,23 25.202454,22.2532468 25.202454,21.2077922 C25.202454,21.2077922 25.202454,21.3571429 25.202454,21.3571429 L24.9754601,21.3571429 L24.9754601,5.30194805 L38.5194274,12.9935065 C38.6707566,13.0681818 38.8977505,13.0681818 38.9734151,12.9935065 L41.8486708,11.2012987 C41.9243354,11.1266234 42,11.0519481 42,10.9025974 C42,10.8279221 41.9243354,10.7532468 41.8486708,10.6785714 Z" id="XMLID_4_"></path>
            </g>
        </g>
    </g>
</svg>