<?xml version="1.0" encoding="UTF-8" standalone="no"?>
<svg width="36px" height="42px" viewBox="0 0 36 42" version="1.1" xmlns="http://www.w3.org/2000/svg" xmlns:xlink="http://www.w3.org/1999/xlink">
    <!-- Generator: Sketch 50.2 (55047) - http://www.bohemiancoding.com/sketch -->
    <title>XMLID_3_</title>
    <desc>Created with Sketch.</desc>
    <defs></defs>
    <g id="Page-1" stroke="none" stroke-width="1" fill="none" fill-rule="evenodd" opacity="0.3">
        <g id="Landing-Page-Cubo" transform="translate(-91.000000, -4959.000000)" fill="#090A0F" fill-rule="nonzero">
            <g id="XMLID_3_" transform="translate(91.000000, 4959.000000)">
                <path d="M35.9990809,13.122144 C35.9990809,12.629558 36.0579015,11.8906789 35.2344141,11.4596661 C34.7638499,11.2133731 34.1168241,11.2749464 33.7050804,11.5828126 L17.8235384,22.4197053 L2.23609906,11.5828126 C1.82435537,11.2749464 1.23615011,11.2133731 0.765585908,11.4596661 C-0.0579014552,11.8291057 0.000919070717,12.5679847 0.000919070717,13.122144 L0.000919070717,30.362655 C0.000919070717,30.4242283 0.0597395966,30.5473748 0.118560123,30.6089481 L0.471483278,30.7936678 L2.118458,31.9019864 L17.0000511,41.753707 C17.2941537,41.9384267 17.6470768,42 17.8235384,42 C18.0588205,42 18.4117437,41.9384267 18.6470258,41.753707 L33.8227215,31.9019864 L35.4696962,30.8552411 L35.8814399,30.5473748 C35.9402604,30.4858015 35.9990809,30.4242283 35.9990809,30.3010818 L35.9990809,13.122144 Z M16.3530253,37.7514455 L2.23609906,28.3923109 L2.23609906,15.8313671 L16.3530253,25.252075 L16.3530253,37.7514455 Z M33.4109778,28.3923109 L19.2940516,37.7514455 L19.2940516,25.252075 L33.4109778,15.8313671 L33.4109778,28.3923109 Z" id="XMLID_5_"></path>
                <path d="M32.7511336,8.625 L18.8946386,0.0603146853 C18.8354228,0.0603146853 18.8354228,0 18.776207,0 C18.776207,0 18.7169912,0 18.7169912,0 L18.6577754,0 C18.6577754,0 18.5985596,0 18.5985596,0 C18.5393438,0 18.5393438,0 18.5393438,0 L18.480128,0 C18.4209122,0 18.3616965,0 18.2432649,0 L18.1840491,0 C18.1248333,0 18.1248333,0 18.1248333,0 L18.0656175,0 C18.0656175,0 18.0064017,0 18.0064017,0 L17.8287543,0.0603146853 C17.8287543,0.0603146853 17.7695385,0.0603146853 17.7695385,0.120629371 L17.7103228,0.120629371 C17.7103228,0.120629371 17.651107,0.120629371 17.651107,0.180944056 L4.03147506,8.74562937 C3.97225927,8.80594406 3.91304348,8.86625874 3.91304348,8.92657343 C3.91304348,8.98688811 3.97225927,9.10751748 4.03147506,9.16783217 L6.16324353,10.6756993 C6.22245932,10.736014 6.3408909,10.736014 6.45932249,10.6756993 L16.5852227,4.34265734 L16.5852227,17.1896853 L16.6444385,17.1896853 C16.6444385,17.1896853 16.6444385,17.0690559 16.6444385,17.0690559 C16.6444385,17.9737762 17.355028,18.5769231 18.1840491,18.5769231 C19.0722859,18.5769231 19.7236596,17.9737762 19.7236596,17.1293706 C19.7236596,17.1293706 19.7236596,17.25 19.7236596,17.25 L19.5460123,17.25 L19.5460123,4.28234266 L30.1456388,10.4947552 C30.2640704,10.5550699 30.4417178,10.5550699 30.5009336,10.4947552 L32.7511336,9.0472028 C32.8103494,8.98688811 32.8695652,8.92657343 32.8695652,8.80594406 C32.8695652,8.74562937 32.8103494,8.68531469 32.7511336,8.625 Z" id="XMLID_4_"></path>
            </g>
        </g>
    </g>
</svg>