<?xml version="1.0" encoding="UTF-8" standalone="no"?>
<svg width="50px" height="50px" viewBox="0 0 50 50" version="1.1" xmlns="http://www.w3.org/2000/svg" xmlns:xlink="http://www.w3.org/1999/xlink">
    <!-- Generator: Sketch 50.2 (55047) - http://www.bohemiancoding.com/sketch -->
    <title>directivos-icon</title>
    <desc>Created with Sketch.</desc>
    <defs>
        <linearGradient x1="50%" y1="0%" x2="50%" y2="100%" id="linearGradient-1">
            <stop stop-color="#B4EC51" offset="0%"></stop>
            <stop stop-color="#429321" offset="100%"></stop>
        </linearGradient>
    </defs>
    <g id="Page-1" stroke="none" stroke-width="1" fill="none" fill-rule="evenodd">
        <g id="Landing-Page-Cubo" transform="translate(-137.000000, -4734.000000)" fill="url(#linearGradient-1)" fill-rule="nonzero">
            <path d="M162,4758.16669 C164.761424,4758.16669 167,4755.92811 167,4753.16669 C167,4750.40527 164.761424,4748.1667 162,4748.1667 C159.238576,4748.1667 157,4750.40527 157,4753.16669 C157.003157,4755.9268 159.239885,4758.16353 162,4758.16669 Z M162,4749.83336 C163.840949,4749.83336 165.333333,4751.32574 165.333333,4753.16669 C165.333333,4755.00764 163.840949,4756.50002 162,4756.50002 C160.159051,4756.50002 158.666667,4755.00764 158.666667,4753.16669 C158.668733,4751.3266 160.159908,4749.83543 162,4749.83336 Z M161.166667,4753.16669 L161.166667,4751.50003 C161.166667,4751.03979 161.539763,4750.66669 162,4750.66669 C162.460237,4750.66669 162.833333,4751.03979 162.833333,4751.50003 L162.833333,4752.33336 C163.293571,4752.33336 163.666667,4752.70645 163.666667,4753.16669 C163.666667,4753.62693 163.293571,4754.00002 162.833333,4754.00002 L162,4754.00002 C161.539763,4754.00002 161.166667,4753.62693 161.166667,4753.16669 Z M168.666667,4764.00002 L168.666667,4760.66669 C168.666667,4760.20645 168.293571,4759.83335 167.833333,4759.83335 L156.166667,4759.83335 C155.706429,4759.83335 155.333333,4760.20645 155.333333,4760.66669 L155.333333,4764.00002 C155.333333,4764.46025 155.706429,4764.83335 156.166667,4764.83335 L167.833333,4764.83335 C168.293571,4764.83335 168.666667,4764.46025 168.666667,4764.00002 Z M167,4763.16668 L157,4763.16668 L157,4761.50002 L167,4761.50002 L167,4763.16668 Z M142.833333,4759.83335 L149.5,4759.83335 C149.960237,4759.83335 150.333333,4759.46026 150.333333,4759.00002 C150.333333,4758.53978 149.960237,4758.16669 149.5,4758.16669 L149.5,4752.33336 C149.5,4751.87312 149.126904,4751.50003 148.666667,4751.50003 L143.666667,4751.50003 C143.206429,4751.50003 142.833333,4751.87312 142.833333,4752.33336 L142.833333,4758.16669 C142.373096,4758.16669 142,4758.53978 142,4759.00002 C142,4759.46026 142.373096,4759.83335 142.833333,4759.83335 Z M144.5,4753.16669 L147.833333,4753.16669 L147.833333,4758.16669 L144.5,4758.16669 L144.5,4753.16669 Z M149.5,4768.16668 L149.5,4762.33335 C149.5,4761.87311 149.126904,4761.50002 148.666667,4761.50002 L143.666667,4761.50002 C143.206429,4761.50002 142.833333,4761.87311 142.833333,4762.33335 L142.833333,4768.16668 C142.373096,4768.16668 142,4768.53978 142,4769.00001 C142,4769.46025 142.373096,4769.83334 142.833333,4769.83334 L149.5,4769.83334 C149.960237,4769.83334 150.333333,4769.46025 150.333333,4769.00001 C150.333333,4768.53978 149.960237,4768.16668 149.5,4768.16668 Z M144.5,4763.16668 L147.833333,4763.16668 L147.833333,4768.16668 L144.5,4768.16668 L144.5,4763.16668 Z M149.5,4778.16667 L149.5,4772.33334 C149.5,4771.87311 149.126904,4771.50001 148.666667,4771.50001 L143.666667,4771.50001 C143.206429,4771.50001 142.833333,4771.87311 142.833333,4772.33334 L142.833333,4778.16667 C142.373096,4778.16667 142,4778.53977 142,4779 C142,4779.46024 142.373096,4779.83334 142.833333,4779.83334 L149.5,4779.83334 C149.960237,4779.83334 150.333333,4779.46024 150.333333,4779 C150.333333,4778.53977 149.960237,4778.16667 149.5,4778.16667 Z M144.5,4773.16668 L147.833333,4773.16668 L147.833333,4778.16667 L144.5,4778.16667 L144.5,4773.16668 Z M174.5,4759.83335 L181.166667,4759.83335 C181.626904,4759.83335 182,4759.46026 182,4759.00002 C182,4758.53978 181.626904,4758.16669 181.166667,4758.16669 L181.166667,4752.33336 C181.166667,4751.87312 180.793571,4751.50003 180.333333,4751.50003 L175.333333,4751.50003 C174.873096,4751.50003 174.5,4751.87312 174.5,4752.33336 L174.5,4758.16669 C174.039763,4758.16669 173.666667,4758.53978 173.666667,4759.00002 C173.666667,4759.46026 174.039763,4759.83335 174.5,4759.83335 Z M176.166667,4753.16669 L179.5,4753.16669 L179.5,4758.16669 L176.166667,4758.16669 L176.166667,4753.16669 Z M174.5,4769.83334 L181.166667,4769.83334 C181.626904,4769.83334 182,4769.46025 182,4769.00001 C182,4768.53978 181.626904,4768.16668 181.166667,4768.16668 L181.166667,4762.33335 C181.166667,4761.87311 180.793571,4761.50002 180.333333,4761.50002 L175.333333,4761.50002 C174.873096,4761.50002 174.5,4761.87311 174.5,4762.33335 L174.5,4768.16668 C174.039763,4768.16668 173.666667,4768.53978 173.666667,4769.00001 C173.666667,4769.46025 174.039763,4769.83334 174.5,4769.83334 Z M176.166667,4763.16668 L179.5,4763.16668 L179.5,4768.16668 L176.166667,4768.16668 L176.166667,4763.16668 Z M174.5,4779.83334 L181.166667,4779.83334 C181.626904,4779.83334 182,4779.46024 182,4779 C182,4778.53977 181.626904,4778.16667 181.166667,4778.16667 L181.166667,4772.33334 C181.166667,4771.87311 180.793571,4771.50001 180.333333,4771.50001 L175.333333,4771.50001 C174.873096,4771.50001 174.5,4771.87311 174.5,4772.33334 L174.5,4778.16667 C174.039763,4778.16667 173.666667,4778.53977 173.666667,4779 C173.666667,4779.46024 174.039763,4779.83334 174.5,4779.83334 Z M176.166667,4773.16668 L179.5,4773.16668 L179.5,4778.16667 L176.166667,4778.16667 L176.166667,4773.16668 Z M186.166667,4749.00003 C186.626904,4749.00003 187,4748.62693 187,4748.1667 C187,4747.70646 186.626904,4747.33336 186.166667,4747.33336 L171.4375,4747.33336 L162.833333,4741.07566 L162.833333,4739.15045 L166.863021,4739.82202 C167.104642,4739.86228 167.351742,4739.7942 167.538646,4739.63587 C167.72555,4739.47753 167.833328,4739.24499 167.833333,4739.00004 L167.833333,4735.66671 C167.833324,4735.25934 167.538805,4734.91169 167.136979,4734.84473 L162.136979,4734.01139 L162.136979,4734.01223 C161.895215,4733.97024 161.647274,4734.03757 161.459962,4734.19609 C161.27265,4734.3546 161.165237,4734.58799 161.166667,4734.83337 L161.166667,4741.07566 L152.5625,4747.33336 L137.833333,4747.33336 C137.373096,4747.33336 137,4747.70646 137,4748.1667 C137,4748.62693 137.373096,4749.00003 137.833333,4749.00003 L138.666667,4749.00003 L138.666667,4782.33333 L137.833333,4782.33333 C137.373096,4782.33333 137,4782.70643 137,4783.16667 C137,4783.6269 137.373096,4784 137.833333,4784 L186.166667,4784 C186.626904,4784 187,4783.6269 187,4783.16667 C187,4782.70643 186.626904,4782.33333 186.166667,4782.33333 L185.333333,4782.33333 L185.333333,4749.00003 L186.166667,4749.00003 Z M161.166667,4782.33333 L157.833333,4782.33333 L157.833333,4773.16668 C157.835878,4771.18755 159.228067,4769.48234 161.166667,4769.08387 L161.166667,4782.33333 Z M162.833333,4769.08387 C164.771933,4769.48234 166.164122,4771.18755 166.166667,4773.16668 L166.166667,4782.33333 L162.833333,4782.33333 L162.833333,4769.08387 Z M162,4767.33335 C158.779862,4767.33702 156.170341,4769.94654 156.166667,4773.16668 L156.166667,4782.33333 L153.666667,4782.33333 L153.666667,4748.59107 L162,4742.53045 L170.333333,4748.59107 L170.333333,4782.33333 L167.833333,4782.33333 L167.833333,4773.16668 C167.829659,4769.94654 165.220138,4767.33702 162,4767.33335 Z M166.166667,4738.01629 L162.833333,4737.46077 L162.833333,4735.81712 L166.166667,4736.37264 L166.166667,4738.01629 Z M140.333333,4749.00003 L152,4749.00003 L152,4782.33333 L140.333333,4782.33333 L140.333333,4749.00003 Z M183.666667,4782.33333 L172,4782.33333 L172,4749.00003 L183.666667,4749.00003 L183.666667,4782.33333 Z" id="directivos-icon"></path>
        </g>
    </g>
</svg>