<?xml version="1.0" encoding="UTF-8" standalone="no"?>
<svg width="43px" height="42px" viewBox="0 0 43 42" version="1.1" xmlns="http://www.w3.org/2000/svg" xmlns:xlink="http://www.w3.org/1999/xlink">
    <!-- Generator: Sketch 50.2 (55047) - http://www.bohemiancoding.com/sketch -->
    <title>002-blackboard</title>
    <desc>Created with Sketch.</desc>
    <defs>
        <linearGradient x1="100%" y1="50%" x2="0%" y2="50%" id="linearGradient-1">
            <stop stop-color="#2AFFFF" offset="0%"></stop>
            <stop stop-color="#0068FF" offset="100%"></stop>
        </linearGradient>
    </defs>
    <g id="Page-1" stroke="none" stroke-width="1" fill="none" fill-rule="evenodd">
        <g id="Landing-Page-Cubo" transform="translate(-585.000000, -3213.000000)" fill="url(#linearGradient-1)" fill-rule="nonzero">
            <g id="002-blackboard" transform="translate(585.000000, 3213.000000)">
                <path d="M40.85,4.34482759 L24.3666667,4.34482759 L24.3666667,0.724137931 C24.3666667,0.324207595 24.0458041,0 23.65,0 L19.35,0 C18.9541959,0 18.6333333,0.324207595 18.6333333,0.724137931 L18.6333333,4.34482759 L2.15,4.34482759 C0.963160797,4.34622422 0.00138222825,5.31802935 0,6.51724138 L0,29.6896552 C0.00138222825,30.8888672 0.963160797,31.8606723 2.15,31.862069 L7.64987917,31.862069 L5.04425833,41.0767241 C4.98240343,41.2952333 5.025664,41.5304088 5.16109295,41.711867 C5.2965219,41.8933251 5.50840641,42.0000127 5.73333333,42 L10.0333333,42 C10.3532487,42.000018 10.6344316,41.7857873 10.7224083,41.475 L13.4406354,31.862069 L15.05,31.862069 L15.05,34.0344828 C15.05,34.4344131 15.3708626,34.7586207 15.7666667,34.7586207 L27.2333333,34.7586207 C27.6291374,34.7586207 27.95,34.4344131 27.95,34.0344828 L27.95,31.862069 L29.5593646,31.862069 L32.2775917,41.475 C32.3655684,41.7857873 32.6467513,42.000018 32.9666667,42 L37.2666667,42 C37.4915936,42.0000127 37.7034781,41.8933251 37.8389071,41.711867 C37.974336,41.5304088 38.0175966,41.2952333 37.9557417,41.0767241 L35.3501208,31.862069 L40.85,31.862069 C42.0368392,31.8606723 42.9986178,30.8888672 43,29.6896552 L43,6.51724138 C42.9986178,5.31802935 42.0368392,4.34622422 40.85,4.34482759 Z M20.0666667,1.44827586 L22.9333333,1.44827586 L22.9333333,4.34482759 L20.0666667,4.34482759 L20.0666667,1.44827586 Z M1.43333333,29.6896552 L1.43333333,28.9655172 L5.73333333,28.9655172 L5.73333333,30.4137931 L2.15,30.4137931 C1.75438012,30.4133441 1.43377766,30.0893994 1.43333333,29.6896552 Z M38.7,27.5172414 L15.7666667,27.5172414 L15.7666667,26.7931034 C15.7666667,26.3931731 15.4458041,26.0689655 15.05,26.0689655 L6.45,26.0689655 C6.05419593,26.0689655 5.73333333,26.3931731 5.73333333,26.7931034 L5.73333333,27.5172414 L4.3,27.5172414 L4.3,8.68965517 L38.7,8.68965517 L38.7,27.5172414 Z M14.3333333,30.4137931 L7.16666667,30.4137931 L7.16666667,27.5172414 L14.3333333,27.5172414 L14.3333333,30.4137931 Z M9.4927875,40.5517241 L6.68336458,40.5517241 L9.14063542,31.862069 L11.9498792,31.862069 L9.4927875,40.5517241 Z M26.5166667,33.3103448 L16.4833333,33.3103448 L16.4833333,31.862069 L26.5166667,31.862069 L26.5166667,33.3103448 Z M36.3170833,40.5517241 L33.5072125,40.5517241 L31.0501208,31.862069 L33.8593646,31.862069 L36.3170833,40.5517241 Z M41.5666667,29.6896552 C41.5662223,30.0893994 41.2456199,30.4133441 40.85,30.4137931 L15.7666667,30.4137931 L15.7666667,28.9655172 L41.5666667,28.9655172 L41.5666667,29.6896552 Z M41.5666667,27.5172414 L40.1333333,27.5172414 L40.1333333,7.96551724 C40.1333333,7.56558691 39.8124707,7.24137931 39.4166667,7.24137931 L3.58333333,7.24137931 C3.18752926,7.24137931 2.86666667,7.56558691 2.86666667,7.96551724 L2.86666667,27.5172414 L1.43333333,27.5172414 L1.43333333,6.51724138 C1.43377766,6.11749715 1.75438012,5.7935524 2.15,5.79310345 L40.85,5.79310345 C41.2456199,5.7935524 41.5662223,6.11749715 41.5666667,6.51724138 L41.5666667,27.5172414 Z M7.16666667,11.5862069 C7.16666667,11.1862766 7.48752926,10.862069 7.88333333,10.862069 L20.7833333,10.862069 C21.1791374,10.862069 21.5,11.1862766 21.5,11.5862069 C21.5,11.9861372 21.1791374,12.3103448 20.7833333,12.3103448 L7.88333333,12.3103448 C7.48752926,12.3103448 7.16666667,11.9861372 7.16666667,11.5862069 Z M22.9333333,11.5862069 C22.9333333,11.1862766 23.2541959,10.862069 23.65,10.862069 L26.5166667,10.862069 C26.9124707,10.862069 27.2333333,11.1862766 27.2333333,11.5862069 C27.2333333,11.9861372 26.9124707,12.3103448 26.5166667,12.3103448 L23.65,12.3103448 C23.2541959,12.3103448 22.9333333,11.9861372 22.9333333,11.5862069 Z M28.6666667,11.5862069 C28.6666667,11.1862766 28.9875293,10.862069 29.3833333,10.862069 L35.8333333,10.862069 C36.2291374,10.862069 36.55,11.1862766 36.55,11.5862069 C36.55,11.9861372 36.2291374,12.3103448 35.8333333,12.3103448 L29.3833333,12.3103448 C28.9875293,12.3103448 28.6666667,11.9861372 28.6666667,11.5862069 Z M7.16666667,23.1724138 C7.16666667,22.7724835 7.48752926,22.4482759 7.88333333,22.4482759 L15.05,22.4482759 C15.4458041,22.4482759 15.7666667,22.7724835 15.7666667,23.1724138 C15.7666667,23.5723441 15.4458041,23.8965517 15.05,23.8965517 L7.88333333,23.8965517 C7.48752926,23.8965517 7.16666667,23.5723441 7.16666667,23.1724138 Z M26.5166667,23.1724138 C26.5166667,23.5723441 26.1958041,23.8965517 25.8,23.8965517 L17.9166667,23.8965517 C17.5208626,23.8965517 17.2,23.5723441 17.2,23.1724138 C17.2,22.7724835 17.5208626,22.4482759 17.9166667,22.4482759 L25.8,22.4482759 C26.1958041,22.4482759 26.5166667,22.7724835 26.5166667,23.1724138 Z M36.55,23.1724138 C36.55,23.5723441 36.2291374,23.8965517 35.8333333,23.8965517 L28.6666667,23.8965517 C28.2708626,23.8965517 27.95,23.5723441 27.95,23.1724138 C27.95,22.7724835 28.2708626,22.4482759 28.6666667,22.4482759 L35.8333333,22.4482759 C36.2291374,22.4482759 36.55,22.7724835 36.55,23.1724138 Z M22.2166667,14.4827586 C22.2166667,14.0828283 22.5375293,13.7586207 22.9333333,13.7586207 L35.8333333,13.7586207 C36.2291374,13.7586207 36.55,14.0828283 36.55,14.4827586 C36.55,14.882689 36.2291374,15.2068966 35.8333333,15.2068966 L22.9333333,15.2068966 C22.5375293,15.2068966 22.2166667,14.882689 22.2166667,14.4827586 Z M17.2,15.2068966 C16.8041959,15.2068966 16.4833333,14.882689 16.4833333,14.4827586 C16.4833333,14.0828283 16.8041959,13.7586207 17.2,13.7586207 L20.0666667,13.7586207 C20.4624707,13.7586207 20.7833333,14.0828283 20.7833333,14.4827586 C20.7833333,14.882689 20.4624707,15.2068966 20.0666667,15.2068966 L17.2,15.2068966 Z M7.16666667,14.4827586 C7.16666667,14.0828283 7.48752926,13.7586207 7.88333333,13.7586207 L14.3333333,13.7586207 C14.7291374,13.7586207 15.05,14.0828283 15.05,14.4827586 C15.05,14.882689 14.7291374,15.2068966 14.3333333,15.2068966 L7.88333333,15.2068966 C7.48752926,15.2068966 7.16666667,14.882689 7.16666667,14.4827586 Z M36.55,20.2758621 C36.55,20.6757924 36.2291374,21 35.8333333,21 L22.9333333,21 C22.5375293,21 22.2166667,20.6757924 22.2166667,20.2758621 C22.2166667,19.8759317 22.5375293,19.5517241 22.9333333,19.5517241 L35.8333333,19.5517241 C36.2291374,19.5517241 36.55,19.8759317 36.55,20.2758621 Z M17.2,21 C16.8041959,21 16.4833333,20.6757924 16.4833333,20.2758621 C16.4833333,19.8759317 16.8041959,19.5517241 17.2,19.5517241 L20.0666667,19.5517241 C20.4624707,19.5517241 20.7833333,19.8759317 20.7833333,20.2758621 C20.7833333,20.6757924 20.4624707,21 20.0666667,21 L17.2,21 Z M7.16666667,20.2758621 C7.16666667,19.8759317 7.48752926,19.5517241 7.88333333,19.5517241 L14.3333333,19.5517241 C14.7291374,19.5517241 15.05,19.8759317 15.05,20.2758621 C15.05,20.6757924 14.7291374,21 14.3333333,21 L7.88333333,21 C7.48752926,21 7.16666667,20.6757924 7.16666667,20.2758621 Z M7.88333333,16.6551724 L35.8333333,16.6551724 C36.2291374,16.6551724 36.55,16.97938 36.55,17.3793103 C36.55,17.7792407 36.2291374,18.1034483 35.8333333,18.1034483 L7.88333333,18.1034483 C7.48752926,18.1034483 7.16666667,17.7792407 7.16666667,17.3793103 C7.16666667,16.97938 7.48752926,16.6551724 7.88333333,16.6551724 Z" id="Shape"></path>
            </g>
        </g>
    </g>
</svg>