<?xml version="1.0" encoding="UTF-8" standalone="no"?>
<svg width="37px" height="53px" viewBox="0 0 37 53" version="1.1" xmlns="http://www.w3.org/2000/svg" xmlns:xlink="http://www.w3.org/1999/xlink">
    <!-- Generator: Sketch 50.2 (55047) - http://www.bohemiancoding.com/sketch -->
    <title>Estuadiantes-icon</title>
    <desc>Created with Sketch.</desc>
    <defs>
        <linearGradient x1="50%" y1="31.2083333%" x2="50%" y2="110.078125%" id="linearGradient-1">
            <stop stop-color="#D60B52" offset="0%"></stop>
            <stop stop-color="#662483" offset="100%"></stop>
        </linearGradient>
    </defs>
    <g id="Page-1" stroke="none" stroke-width="1" fill="none" fill-rule="evenodd">
        <g id="Landing-Page-Cubo" transform="translate(-149.000000, -4072.000000)" fill="url(#linearGradient-1)" fill-rule="nonzero">
            <g id="Estuadiantes-icon" transform="translate(149.000000, 4072.000000)">
                <g id="045-student">
                    <path d="M22.0238095,18.5507152 C22.0238095,18.0628738 22.4182253,17.6674002 22.9047619,17.6674002 C23.3912985,17.6674002 23.7857143,18.0628738 23.7857143,18.5507152 C23.7857143,19.0385566 23.3912985,19.4340301 22.9047619,19.4340301 C22.4182253,19.4340301 22.0238095,19.0385566 22.0238095,18.5507152 Z M14.0952381,19.4340301 C14.5817747,19.4340301 14.9761905,19.0385566 14.9761905,18.5507152 C14.9761905,18.0628738 14.5817747,17.6674002 14.0952381,17.6674002 C13.6087015,17.6674002 13.2142857,18.0628738 13.2142857,18.5507152 C13.2142857,19.0385566 13.6087015,19.4340301 14.0952381,19.4340301 Z M17.6190476,21.2006601 L19.3809524,21.2006601 C19.8674889,21.2006601 20.2619048,20.8051865 20.2619048,20.3173451 C20.2619048,19.8295037 19.8674889,19.4340301 19.3809524,19.4340301 L18.5,19.4340301 L18.5,18.5507152 C18.5,18.0628738 18.1055842,17.6674002 17.6190476,17.6674002 C17.1325111,17.6674002 16.7380952,18.0628738 16.7380952,18.5507152 L16.7380952,20.3173451 C16.7380952,20.8051865 17.1325111,21.2006601 17.6190476,21.2006601 Z M18.5,25.6172351 C22.3466786,25.6172351 23.6638125,22.5541195 23.7179911,22.4237202 C23.8390456,22.1324022 23.7959041,21.7984582 23.6048174,21.5476817 C23.4137307,21.2969052 23.1037294,21.1673952 22.7915882,21.2079367 C22.4794469,21.2484782 22.2125873,21.4529121 22.0915327,21.7442301 C22.0828333,21.7653193 21.185253,23.8506051 18.5,23.8506051 C15.8619881,23.8506051 14.948881,21.8368678 14.9061548,21.7388198 C14.7144168,21.294311 14.2014662,21.087496 13.7562007,21.2751731 C13.3109352,21.4628502 13.0994164,21.9750254 13.2820089,22.4233889 C13.3361875,22.5541195 14.6533214,25.6172351 18.5,25.6172351 Z M0,52.116685 L0,32.6837551 C0.00268974423,30.5859242 1.47443247,28.7784349 3.52380952,28.3560637 L3.52380952,25.6172351 C3.52352301,24.4021826 4.02391756,23.2410003 4.9065744,22.408483 C3.29598534,21.5105399 2.41334587,19.7020118 2.69446652,17.8758743 C2.97558718,16.0497369 4.36100826,14.5922356 6.16666667,14.2230237 L6.16666667,14.1341402 C6.1663744,13.4015675 6.23086301,12.6704115 6.359375,11.9492605 C3.71041606,9.17416637 3.75838719,4.78534431 6.46736778,2.06912857 C9.17634836,-0.647087175 13.5534321,-0.695138442 16.3210744,1.96095538 C19.9157316,1.31638953 23.610508,2.30129627 26.4113369,4.65068988 C29.2121659,7.00008349 30.8313793,10.472662 30.8333333,14.1341402 L30.8333333,14.2230237 C32.6389917,14.5922356 34.0244128,16.0497369 34.3055335,17.8758743 C34.5866541,19.7020118 33.7040147,21.5105399 32.0934256,22.408483 C32.9760824,23.2410003 33.476477,24.4021826 33.4761905,25.6172351 L33.4761905,28.3560637 C35.5255442,28.7784736 36.9972678,30.5859395 37,32.6837551 L37,52.116685 C37,52.6045264 36.6055842,53 36.1190476,53 L0.880952381,53 C0.394415816,53 0,52.6045264 0,52.116685 Z M7.92857143,15.9007702 L7.92857143,17.6674002 C7.92857143,23.521497 12.6615612,28.2671801 18.5,28.2671801 C24.3384388,28.2671801 29.0714286,23.521497 29.0714286,17.6674002 L29.0714286,15.9007702 L7.92857143,15.9007702 Z M31.7142857,25.6172351 C31.7126358,24.364459 30.8376418,23.2833982 29.6153065,23.0239327 C28.566415,25.1984498 26.9094524,27.0201733 24.8462708,28.2671801 L31.7142857,28.2671801 L31.7142857,25.6172351 Z M6.81152381,44.16685 C6.45555513,44.1672759 6.16709141,44.4565133 6.16666667,44.8134366 L6.16666667,47.0535234 C6.16709141,47.4104468 6.45555513,47.6996841 6.81152381,47.70011 L9.69047619,47.70011 L9.69047619,44.16685 L6.81152381,44.16685 Z M10.5714286,49.46674 L10.5714286,51.23337 L17.6190476,51.23337 L17.6190476,45.2586274 L12.4263839,34.8454477 L12.4272649,34.8454477 C12.3657192,34.722884 12.3335554,34.5876077 12.3333333,34.4503851 L12.3333333,30.0338101 L10.5714286,30.0338101 L10.5714286,42.40022 C11.0579651,42.40022 11.452381,42.7956936 11.452381,43.283535 L11.452381,48.583425 C11.452381,49.0712664 11.0579651,49.46674 10.5714286,49.46674 Z M20.2267768,39.6121467 L19.515628,35.3337001 L17.484372,35.3337001 L16.7732232,39.6121467 L18.5,43.0749623 L20.2267768,39.6121467 Z M17.6190476,33.5670701 L19.3809524,33.5670701 L19.3809524,31.2829279 L18.5,30.3996129 L17.6190476,31.2829279 L17.6190476,33.5670701 Z M14.0952381,30.0338101 L14.0952381,32.3179523 L16.3732708,30.0338101 L14.0952381,30.0338101 Z M14.2861845,34.6248398 L15.4335149,36.9256545 L15.8571429,34.3772908 L15.8571429,33.0495579 L14.2861845,34.6248398 Z M22.7138155,34.6248398 L21.1428571,33.0496683 L21.1428571,34.3769595 L21.5664851,36.9255441 L22.7138155,34.6248398 Z M22.9047619,30.0338101 L20.6267292,30.0338101 L22.9047619,32.3179523 L22.9047619,30.0338101 Z M19.3809524,51.23337 L26.4285714,51.23337 L26.4285714,49.46674 C25.9420349,49.46674 25.547619,49.0712664 25.547619,48.583425 L25.547619,43.283535 C25.547619,42.7956936 25.9420349,42.40022 26.4285714,42.40022 L26.4285714,30.0338101 L24.6666667,30.0338101 L24.6666667,34.4503851 C24.666359,34.5874211 24.6341976,34.7224986 24.5727351,34.8448956 L24.5736161,34.8448956 L19.3809524,45.2586274 L19.3809524,51.23337 Z M30.1884762,47.70011 C30.5444449,47.6996841 30.8329086,47.4104468 30.8333333,47.0535234 L30.8333333,44.8134366 C30.8329086,44.4565133 30.5444449,44.1672759 30.1884762,44.16685 L27.3095238,44.16685 L27.3095238,47.70011 L30.1884762,47.70011 Z M28.1904762,51.23337 L29.952381,51.23337 L29.952381,49.46674 L28.1904762,49.46674 L28.1904762,51.23337 Z M29.952381,30.0338101 L28.1904762,30.0338101 L28.1904762,42.40022 L29.952381,42.40022 L29.952381,30.0338101 Z M7.38469345,23.0239327 C6.16235819,23.2833982 5.28736416,24.364459 5.28571429,25.6172351 L5.28571429,28.2671801 L12.1537292,28.2671801 C10.0905476,27.0201733 8.43358499,25.1984498 7.38469345,23.0239327 Z M7.04761905,30.0338101 L7.04761905,42.40022 L8.80952381,42.40022 L8.80952381,30.0338101 L7.04761905,30.0338101 Z M7.04761905,51.23337 L8.80952381,51.23337 L8.80952381,49.46674 L7.04761905,49.46674 L7.04761905,51.23337 Z M32.5952381,30.0338101 L31.7142857,30.0338101 L31.7142857,42.9486482 C32.271959,43.4063427 32.5953225,44.0908343 32.5952381,44.8134366 L32.5952381,47.0535234 C32.5953225,47.7761258 32.271959,48.4606173 31.7142857,48.9183118 L31.7142857,51.23337 L35.2380952,51.23337 L35.2380952,32.6837551 C35.2364567,31.2209119 34.0541685,30.035453 32.5952381,30.0338101 Z M30.8333333,16.0527003 L30.8333333,17.6674002 C30.8339997,18.8544144 30.6636861,20.0353032 30.3276667,21.1734982 C31.5312086,20.9997349 32.4611934,20.0249881 32.5810022,18.8117051 C32.700811,17.5984221 31.9795224,16.4597403 30.8333333,16.0527003 Z M18.5,3.53436022 C12.6642782,3.54093193 7.93512556,8.2827676 7.92857143,14.1341402 L10.5714286,14.1341402 L10.5714286,13.2508252 C10.5714286,12.7629838 10.9658444,12.3675102 11.452381,12.3675102 C11.9389175,12.3675102 12.3333333,12.7629838 12.3333333,13.2508252 L12.3333333,14.1341402 L14.9761905,14.1341402 L14.9761905,13.2508252 C14.9761905,12.7629838 15.3706063,12.3675102 15.8571429,12.3675102 C16.3436794,12.3675102 16.7380952,12.7629838 16.7380952,13.2508252 L16.7380952,14.1341402 L20.2619048,14.1341402 L20.2619048,13.2508252 C20.2619048,12.7629838 20.6563206,12.3675102 21.1428571,12.3675102 C21.6293937,12.3675102 22.0238095,12.7629838 22.0238095,13.2508252 L22.0238095,14.1341402 L24.6666667,14.1341402 L24.6666667,13.2508252 C24.6666667,12.7629838 25.0610825,12.3675102 25.547619,12.3675102 C26.0341556,12.3675102 26.4285714,12.7629838 26.4285714,13.2508252 L26.4285714,14.1341402 L29.0714286,14.1341402 C29.0648744,8.2827676 24.3357218,3.54093193 18.5,3.53436022 Z M6.93816071,9.82886288 C8.19516001,6.45981461 10.8459808,3.80188459 14.2060179,2.54151416 C12.1221844,1.2697292 9.44115414,1.5919945 7.71616745,3.32160742 C5.99118075,5.05122034 5.66977742,7.73944078 6.93816071,9.82886288 Z M4.4047619,18.5507152 C4.40657251,19.868135 5.37198655,20.9847796 6.67233333,21.1734982 C6.3363139,20.0353032 6.16600032,18.8544144 6.16666667,17.6674002 L6.16666667,16.0527003 C5.11166548,16.4280649 4.40620479,17.4282616 4.4047619,18.5507152 Z M1.76190476,51.23337 L5.28571429,51.23337 L5.28571429,48.9183118 C4.728041,48.4606173 4.40467751,47.7761258 4.4047619,47.0535234 L4.4047619,44.8134366 C4.40467751,44.0908343 4.728041,43.4063427 5.28571429,42.9486482 L5.28571429,30.0338101 L4.4047619,30.0338101 C2.94583145,30.035453 1.7635433,31.2209119 1.76190476,32.6837551 L1.76190476,51.23337 Z" id="Shape"></path>
                </g>
            </g>
        </g>
    </g>
</svg>