<?xml version="1.0" encoding="UTF-8" standalone="no"?>
<svg width="50px" height="50px" viewBox="0 0 50 50" version="1.1" xmlns="http://www.w3.org/2000/svg" xmlns:xlink="http://www.w3.org/1999/xlink">
    <!-- Generator: Sketch 50.2 (55047) - http://www.bohemiancoding.com/sketch -->
    <title>Docentes-icon</title>
    <desc>Created with Sketch.</desc>
    <defs>
        <linearGradient x1="50%" y1="0%" x2="50%" y2="100%" id="linearGradient-1">
            <stop stop-color="#FAD961" offset="0%"></stop>
            <stop stop-color="#F76B1C" offset="100%"></stop>
        </linearGradient>
    </defs>
    <g id="Page-1" stroke="none" stroke-width="1" fill="none" fill-rule="evenodd">
        <g id="Landing-Page-Cubo" transform="translate(-145.000000, -4480.000000)" fill="url(#linearGradient-1)" fill-rule="nonzero">
            <path d="M183.842659,4517.19048 C183.842659,4516.73404 184.212675,4516.36402 184.669114,4516.36402 L187.974934,4516.36402 C188.431373,4516.36402 188.801389,4516.73404 188.801389,4517.19048 C188.801389,4517.64691 188.431373,4518.01693 187.974934,4518.01693 L184.669114,4518.01693 C184.212675,4518.01693 183.842659,4517.64691 183.842659,4517.19048 Z M188.801389,4519.66984 L183.945966,4519.66984 C183.489527,4519.66984 183.119511,4520.03986 183.119511,4520.4963 C183.119511,4520.95273 183.489527,4521.32275 183.945966,4521.32275 L188.801389,4521.32275 C189.257828,4521.32275 189.627844,4520.95273 189.627844,4520.4963 C189.627844,4520.03986 189.257828,4519.66984 188.801389,4519.66984 Z M194.586574,4525.45503 L194.586574,4527.10794 C194.585037,4528.47661 193.475888,4529.58576 192.107209,4529.5873 L149.131548,4529.5873 C148.675109,4529.5873 148.305093,4529.21729 148.305093,4528.76085 L148.305093,4514.0797 L145.086567,4507.64265 L145.087187,4507.64265 C144.955241,4507.37876 144.974102,4507.06452 145.136667,4506.8183 C145.299231,4506.57209 145.5808,4506.4313 145.875311,4506.44898 C146.169821,4506.46666 146.432529,4506.64011 146.564475,4506.904 L146.565095,4506.904 L148.541562,4510.85694 C149.126022,4509.20615 150.686172,4508.10187 152.437368,4508.09947 L158.880515,4508.09947 C156.928004,4506.92238 155.36379,4505.19825 154.381707,4503.14074 L154.090278,4503.14074 C151.809148,4503.13818 149.960565,4501.2896 149.958003,4499.00847 L149.958003,4494.87619 C149.958003,4486.67362 156.631627,4480 164.834193,4480 C173.036759,4480 179.710384,4486.67362 179.710384,4494.87619 L179.710384,4499.00847 C179.707822,4501.2896 177.859239,4503.13818 175.578109,4503.14074 L175.28668,4503.14074 C174.304597,4505.19825 172.740382,4506.92238 170.787872,4508.09947 L177.231019,4508.09947 C179.512149,4508.10203 181.360732,4509.95062 181.363294,4512.23175 L181.363294,4513.0582 L192.107209,4513.0582 C192.563648,4513.0582 192.933664,4513.42822 192.933664,4513.88466 L192.933664,4523.11781 C193.923401,4523.46901 194.585221,4524.40483 194.586574,4525.45503 Z M177.231019,4509.75238 L171.445834,4509.75238 L171.445834,4513.0582 L179.710384,4513.0582 L179.710384,4512.23175 C179.708847,4510.86307 178.599697,4509.75392 177.231019,4509.75238 Z M168.418942,4513.26709 L165.660648,4511.19868 L165.660648,4527.93439 L168.140013,4527.93439 L168.140013,4513.88466 C168.140096,4513.64832 168.241681,4513.4234 168.418942,4513.26709 Z M159.875463,4512.23175 L163.181283,4509.75238 L159.875463,4509.75238 L159.875463,4512.23175 Z M169.792924,4512.23175 L169.792924,4509.75238 L166.487103,4509.75238 L169.792924,4512.23175 Z M178.057474,4499.00847 C178.05612,4497.95827 177.394301,4497.02245 176.404564,4496.67125 L176.404564,4498.18201 C176.405189,4499.29262 176.245411,4500.39749 175.930179,4501.46242 C177.150083,4501.28585 178.055775,4500.24108 178.057474,4499.00847 Z M151.610913,4494.87619 L151.610913,4495.70492 C152.099607,4495.33661 152.664279,4495.08191 153.263823,4494.95935 L153.263823,4494.87619 C153.263823,4494.41975 153.633839,4494.04974 154.090278,4494.04974 L161.528373,4494.04974 C164.718386,4494.04974 167.313558,4491.08379 167.313558,4487.4381 C167.313558,4486.98166 167.683575,4486.61164 168.140013,4486.61164 C172.702251,4486.61682 176.399383,4490.31395 176.404564,4494.87619 L176.404564,4494.95935 C177.004108,4495.08191 177.56878,4495.33661 178.057474,4495.70492 L178.057474,4494.87619 C178.057474,4487.57317 172.137209,4481.65291 164.834193,4481.65291 C157.531177,4481.65291 151.610913,4487.57317 151.610913,4494.87619 Z M157.398371,4495.70265 L154.916733,4495.70265 L154.916733,4497.35556 L156.652805,4497.35556 C156.77536,4496.75601 157.030062,4496.19134 157.398371,4495.70265 Z M158.222553,4498.18201 C158.222553,4499.55133 159.332603,4500.66138 160.701918,4500.66138 C162.071234,4500.66138 163.181283,4499.55133 163.181283,4498.18201 C163.181283,4496.8127 162.071234,4495.70265 160.701918,4495.70265 C159.333263,4495.70424 158.224147,4496.81336 158.222553,4498.18201 Z M153.738208,4501.46242 C153.422976,4500.39749 153.263198,4499.29262 153.263823,4498.18201 L153.263823,4496.67125 C152.188539,4497.05209 151.511871,4498.11747 151.624268,4499.25266 C151.736665,4500.38784 152.60912,4501.29984 153.738208,4501.46242 Z M164.834193,4508.09947 C169.988525,4508.0931 174.281176,4504.14435 174.716943,4499.00847 L173.016098,4499.00847 C172.591825,4501.08697 170.662603,4502.50658 168.551981,4502.29336 C166.441359,4502.08014 164.835037,4500.30337 164.835037,4498.18201 C164.835037,4496.06065 166.441359,4494.28388 168.551981,4494.07066 C170.662603,4493.85744 172.591825,4495.27705 173.016098,4497.35556 L174.751654,4497.35556 L174.751654,4494.87619 C174.747125,4491.53008 172.246446,4488.71345 168.924423,4488.31269 C168.607684,4491.64351 166.503116,4494.38982 163.699781,4495.34252 C164.905738,4496.61569 165.176433,4498.51152 164.374979,4500.07132 C163.573526,4501.63112 161.874606,4502.51493 160.137329,4502.27581 C158.400052,4502.0367 157.003069,4500.72678 156.652805,4499.00847 L154.951444,4499.00847 C155.38721,4504.14435 159.679862,4508.0931 164.834193,4508.09947 Z M168.966468,4495.70265 C167.597153,4495.70265 166.487103,4496.8127 166.487103,4498.18201 C166.487103,4499.55133 167.597153,4500.66138 168.966468,4500.66138 C170.335784,4500.66138 171.445834,4499.55133 171.445834,4498.18201 C171.44424,4496.81336 170.335123,4495.70424 168.966468,4495.70265 Z M149.958003,4513.68961 L154.601027,4522.97566 L157.396098,4522.97566 C157.852537,4522.97566 158.222553,4523.34568 158.222553,4523.80212 L158.222553,4527.93439 L164.007738,4527.93439 L164.007738,4511.19868 L159.544881,4514.54582 C159.294451,4514.73364 158.959396,4514.76385 158.679406,4514.62386 C158.399416,4514.48387 158.222553,4514.19769 158.222553,4513.88466 L158.222553,4509.75238 L152.437368,4509.75238 C151.06869,4509.75392 149.95954,4510.86307 149.958003,4512.23175 L149.958003,4513.68961 Z M149.958003,4527.93439 L151.753063,4527.93439 C151.658879,4527.66903 151.610802,4527.38951 151.610913,4527.10794 L151.610913,4525.45503 C151.61156,4524.54748 152.107616,4523.71269 152.904418,4523.27825 L149.958003,4517.38552 L149.958003,4527.93439 Z M156.569643,4527.93439 L156.569643,4524.62857 L154.090278,4524.62857 C153.634052,4524.62908 153.264335,4524.9988 153.263823,4525.45503 L153.263823,4527.10794 C153.264335,4527.56416 153.634052,4527.93388 154.090278,4527.93439 L156.569643,4527.93439 Z M179.710384,4527.93439 L179.710384,4514.71111 L169.792924,4514.71111 L169.792924,4527.93439 L179.710384,4527.93439 Z M188.801389,4522.97566 L191.280754,4522.97566 L191.280754,4514.71111 L181.363294,4514.71111 L181.363294,4527.93439 L187.974934,4527.93439 L187.974934,4523.80212 C187.974934,4523.34568 188.344951,4522.97566 188.801389,4522.97566 Z M192.933664,4525.45503 C192.933152,4524.9988 192.563435,4524.62908 192.107209,4524.62857 L189.627844,4524.62857 L189.627844,4527.93439 L192.107209,4527.93439 C192.563435,4527.93388 192.933152,4527.56416 192.933664,4527.10794 L192.933664,4525.45503 Z M166.855082,4503.27959 C165.476452,4504.19902 164.191934,4504.19902 162.813304,4503.27959 C162.567648,4503.11389 162.252084,4503.09239 161.986223,4503.22323 C161.720363,4503.35408 161.544896,4503.61724 161.52633,4503.91297 C161.507765,4504.2087 161.648943,4504.49174 161.896352,4504.65481 C162.857106,4505.29531 163.845856,4505.61556 164.834193,4505.61556 C165.82253,4505.61556 166.811074,4505.29531 167.772034,4504.65481 C168.149015,4504.40053 168.24977,4503.88949 167.997512,4503.51116 C167.745253,4503.13283 167.234753,4503.02935 166.855082,4503.27959 Z M168.140013,4498.18201 C168.140013,4498.63845 168.51003,4499.00847 168.966468,4499.00847 C169.422907,4499.00847 169.792924,4498.63845 169.792924,4498.18201 C169.792924,4497.72557 169.422907,4497.35556 168.966468,4497.35556 C168.51003,4497.35556 168.140013,4497.72557 168.140013,4498.18201 Z M160.701918,4499.00847 C161.158357,4499.00847 161.528373,4498.63845 161.528373,4498.18201 C161.528373,4497.72557 161.158357,4497.35556 160.701918,4497.35556 C160.24548,4497.35556 159.875463,4497.72557 159.875463,4498.18201 C159.875463,4498.63845 160.24548,4499.00847 160.701918,4499.00847 Z" id="Docentes-icon"></path>
        </g>
    </g>
</svg>