<?xml version="1.0" encoding="UTF-8" standalone="no"?>
<svg width="43px" height="40px" viewBox="0 0 43 40" version="1.1" xmlns="http://www.w3.org/2000/svg" xmlns:xlink="http://www.w3.org/1999/xlink">
    <!-- Generator: Sketch 50.2 (55047) - http://www.bohemiancoding.com/sketch -->
    <title>001-art</title>
    <desc>Created with Sketch.</desc>
    <defs>
        <linearGradient x1="100%" y1="50%" x2="0%" y2="50%" id="linearGradient-1">
            <stop stop-color="#2AFFFF" offset="0%"></stop>
            <stop stop-color="#0068FF" offset="100%"></stop>
        </linearGradient>
    </defs>
    <g id="Page-1" stroke="none" stroke-width="1" fill="none" fill-rule="evenodd">
        <g id="Landing-Page-Cubo" transform="translate(-119.000000, -3577.000000)" fill="url(#linearGradient-1)" fill-rule="nonzero">
            <g id="001-art" transform="translate(119.000000, 3577.000000)">
                <path d="M42.2833333,0 L0.716666667,0 C0.320862596,0 0,0.319796607 0,0.714285714 L0,27.8571429 C0,28.251632 0.320862596,28.5714286 0.716666667,28.5714286 L13.4154625,28.5714286 L10.7714104,39.1125 C10.7178958,39.3258808 10.7659978,39.5519355 10.9018073,39.7252973 C11.0376168,39.8986592 11.2459876,39.9999942 11.4666667,40 L15.7666667,40 C16.0955246,39.9999913 16.3821749,39.7769106 16.4619229,39.4589286 L19.1928708,28.5714286 L23.8071292,28.5714286 L26.5380771,39.4589286 C26.6178251,39.7769106 26.9044754,39.9999913 27.2333333,40 L31.5333333,40 C31.7540124,39.9999942 31.9623832,39.8986592 32.0981927,39.7252973 C32.2340022,39.5519355 32.2821042,39.3258808 32.2285896,39.1125 L29.5845375,28.5714286 L33.4201375,28.5714286 L33.6343313,34.9764286 C33.6750021,36.19125 34.6188521,37.1428571 35.7830771,37.1428571 L35.8835896,37.1428571 C37.0481729,37.1428571 37.9916646,36.19125 38.0322458,34.9764286 L38.2465292,28.5714286 L42.2833333,28.5714286 C42.6791374,28.5714286 43,28.251632 43,27.8571429 L43,0.714285714 C43,0.319796607 42.6791374,0 42.2833333,0 Z M41.5666667,1.42857143 L41.5666667,18.4992857 L40.1333333,17.3385714 L40.1333333,15 C40.1333333,14.6055109 39.8124707,14.2857143 39.4166667,14.2857143 L38.6066542,14.2857143 C39.1377831,13.565359 39.4218285,12.6935734 39.4166667,11.7996429 L39.4166667,7.92205357 C39.4166667,5.74705357 38.0871604,4.28571429 36.1083542,4.28571429 L30.8166667,4.28571429 C30.4208626,4.28571429 30.1,4.60551089 30.1,5 C30.1,5.39448911 30.4208626,5.71428571 30.8166667,5.71428571 C31.2971021,5.71428571 31.657675,5.83517857 31.8881729,6.07375 C32.2701563,6.46892857 32.2509854,7.10339286 32.251075,7.10375 C32.2503583,7.11678571 32.25,7.12982143 32.25,7.14285714 L32.25,10.9546429 L31.2686146,10.16 C31.0068657,9.94790058 30.6321434,9.94645054 30.36875,10.1565179 L18.0906375,19.9464286 L9.03689792,13.0052679 C8.81190969,12.8327941 8.5059919,12.8089146 8.25680625,12.944375 L1.43333333,16.6539286 L1.43333333,1.42857143 L41.5666667,1.42857143 Z M32.9666667,18.5714286 L32.9666667,15.7142857 L38.7,15.7142857 L38.7,18.5714286 L32.9666667,18.5714286 Z M33.8989604,12.8598214 C33.951725,12.8615179 34.0049375,12.8627679 34.0586875,12.8627679 C35.2595521,12.8627679 36.6716542,12.4190179 37.2276979,10.8080357 C37.4041803,10.2787397 37.6588588,9.77862829 37.9833333,9.32419643 L37.9833333,11.7996429 C37.9833333,12.9952679 37.1613167,14.2857143 35.8333333,14.2857143 C34.9053396,14.2857143 34.2249542,13.6517857 33.8989604,12.8598214 Z M33.3656708,5.71428571 L36.1083542,5.71428571 C37.4127771,5.71428571 37.8200229,6.63151786 37.9382729,7.35598214 C37.3828563,7.763125 36.4554896,8.65366071 35.8723021,10.3433929 C35.7325521,10.7483929 35.4311938,11.2996429 34.4329667,11.41 C34.1836868,11.4354985 33.9323905,11.4344509 33.6833333,11.406875 L33.6833333,7.158125 C33.6935438,6.65857513 33.584674,6.16374026 33.3656708,5.71428571 Z M1.43333333,18.2811607 L8.53317083,14.4214286 L16.9383271,20.8653571 L9.06529583,27.1428571 L1.43333333,27.1428571 L1.43333333,18.2811607 Z M15.2071292,38.5714286 L12.3845375,38.5714286 L14.8928708,28.5714286 L17.7154625,28.5714286 L15.2071292,38.5714286 Z M30.6154625,38.5714286 L27.7928708,38.5714286 L25.2845375,28.5714286 L28.1071292,28.5714286 L30.6154625,38.5714286 Z M11.3597042,27.1428571 L30.8131729,11.6317857 L32.4022917,12.9189286 C32.5369552,13.4124452 32.7639368,13.8761692 33.0713,14.2857143 L32.25,14.2857143 C31.8541959,14.2857143 31.5333333,14.6055109 31.5333333,15 L31.5333333,19.2857143 C31.5333333,19.6802034 31.8541959,20 32.25,20 L33.1334708,20 L33.3723896,27.1428571 L11.3597042,27.1428571 Z M35.8835896,35.7142857 L35.7830771,35.7142857 C35.3962563,35.7142857 35.0816396,35.3692857 35.0664104,34.9285714 L34.5676104,20 L37.0990562,20 L36.5997187,34.9285714 C36.5850271,35.3692857 36.2704104,35.7142857 35.8835896,35.7142857 Z M38.2942771,27.1428571 L38.5331958,20 L39.4166667,20 C39.8124707,20 40.1333333,19.6802034 40.1333333,19.2857143 L40.1333333,19.1792857 L41.5666667,20.34 L41.5666667,27.1428571 L38.2942771,27.1428571 Z M17.9166667,12.8571429 C20.2914911,12.8571429 22.2166667,10.9383632 22.2166667,8.57142857 C22.2166667,6.20449393 20.2914911,4.28571429 17.9166667,4.28571429 C15.5418422,4.28571429 13.6166667,6.20449393 13.6166667,8.57142857 C13.6193819,10.9372414 15.5429678,12.8544367 17.9166667,12.8571429 Z M17.9166667,5.71428571 C19.4998829,5.71428571 20.7833333,6.99347214 20.7833333,8.57142857 C20.7833333,10.149385 19.4998829,11.4285714 17.9166667,11.4285714 C16.3334504,11.4285714 15.05,10.149385 15.05,8.57142857 C15.0517773,6.99420646 16.3341871,5.7160571 17.9166667,5.71428571 Z" id="Shape"></path>
            </g>
        </g>
    </g>
</svg>