<?xml version="1.0" encoding="UTF-8" standalone="no"?>
<svg width="43px" height="38px" viewBox="0 0 43 38" version="1.1" xmlns="http://www.w3.org/2000/svg" xmlns:xlink="http://www.w3.org/1999/xlink">
    <!-- Generator: Sketch 50.2 (55047) - http://www.bohemiancoding.com/sketch -->
    <title>005-calendar</title>
    <desc>Created with Sketch.</desc>
    <defs>
        <linearGradient x1="100%" y1="50%" x2="0%" y2="50%" id="linearGradient-1">
            <stop stop-color="#2AFFFF" offset="0%"></stop>
            <stop stop-color="#0068FF" offset="100%"></stop>
        </linearGradient>
    </defs>
    <g id="Page-1" stroke="none" stroke-width="1" fill="none" fill-rule="evenodd">
        <g id="Landing-Page-Cubo" transform="translate(-114.000000, -3213.000000)" fill="url(#linearGradient-1)" fill-rule="nonzero">
            <g id="005-calendar" transform="translate(114.000000, 3213.000000)">
                <path d="M42.2833333,2.92307692 L37.9833333,2.92307692 L37.9833333,2.19230769 C37.9833333,0.981529587 37.0207455,0 35.8333333,0 C34.6459211,0 33.6833333,0.981529587 33.6833333,2.19230769 L33.6833333,2.92307692 L30.8166667,2.92307692 L30.8166667,2.19230769 C30.8166667,0.981529587 29.8540789,0 28.6666667,0 C27.4792545,0 26.5166667,0.981529587 26.5166667,2.19230769 L26.5166667,2.92307692 L23.65,2.92307692 L23.65,2.19230769 C23.65,0.981529587 22.6874122,0 21.5,0 C20.3125878,0 19.35,0.981529587 19.35,2.19230769 L19.35,2.92307692 L16.4833333,2.92307692 L16.4833333,2.19230769 C16.4833333,0.981529612 15.5207455,6.53358606e-08 14.3333333,6.53358606e-08 C13.1459211,6.53358606e-08 12.1833334,0.981529612 12.1833333,2.19230769 L12.1833333,2.92307692 L9.31666667,2.92307692 L9.31666667,2.19230769 C9.31666664,0.981529605 8.35407886,4.61994306e-08 7.16666667,4.61994306e-08 C5.97925447,4.61994306e-08 5.01666669,0.981529605 5.01666667,2.19230769 L5.01666667,2.92307692 L0.716666667,2.92307692 C0.320862596,2.92307692 -5.68434189e-14,3.25025345 -5.68434189e-14,3.65384615 L-5.68434189e-14,37.2692308 C-5.68434189e-14,37.6728235 0.320862596,38 0.716666667,38 L42.2833333,38 C42.6791374,38 43,37.6728235 43,37.2692308 L43,3.65384615 C43,3.25025345 42.6791374,2.92307692 42.2833333,2.92307692 Z M35.1166667,2.19230769 C35.1166667,1.78871499 35.4375293,1.46153846 35.8333333,1.46153846 C36.2291374,1.46153846 36.55,1.78871499 36.55,2.19230769 L36.55,5.11538462 C36.55,5.51897732 36.2291374,5.84615385 35.8333333,5.84615385 C35.4375293,5.84615385 35.1166667,5.51897732 35.1166667,5.11538462 L35.1166667,2.19230769 Z M27.95,2.19230769 C27.95,1.78871499 28.2708626,1.46153846 28.6666667,1.46153846 C29.0624707,1.46153846 29.3833333,1.78871499 29.3833333,2.19230769 L29.3833333,5.11538462 C29.3833333,5.51897732 29.0624707,5.84615385 28.6666667,5.84615385 C28.2708626,5.84615385 27.95,5.51897732 27.95,5.11538462 L27.95,2.19230769 Z M20.7833333,2.19230769 C20.7833333,1.78871499 21.1041959,1.46153846 21.5,1.46153846 C21.8958041,1.46153846 22.2166667,1.78871499 22.2166667,2.19230769 L22.2166667,5.11538462 C22.2166667,5.51897732 21.8958041,5.84615385 21.5,5.84615385 C21.1041959,5.84615385 20.7833333,5.51897732 20.7833333,5.11538462 L20.7833333,2.19230769 Z M13.6166667,2.19230769 C13.6166667,1.78871499 13.9375293,1.46153846 14.3333333,1.46153846 C14.7291374,1.46153846 15.05,1.78871499 15.05,2.19230769 L15.05,5.11538462 C15.05,5.51897732 14.7291374,5.84615385 14.3333333,5.84615385 C13.9375293,5.84615385 13.6166667,5.51897732 13.6166667,5.11538462 L13.6166667,2.19230769 Z M6.45,2.19230769 C6.45,1.78871499 6.7708626,1.46153846 7.16666667,1.46153846 C7.56247074,1.46153846 7.88333333,1.78871499 7.88333333,2.19230769 L7.88333333,5.11538462 C7.88333333,5.51897732 7.56247074,5.84615385 7.16666667,5.84615385 C6.7708626,5.84615385 6.45,5.51897732 6.45,5.11538462 L6.45,2.19230769 Z M1.43333333,4.38461538 L5.01666667,4.38461538 L5.01666667,5.11538462 C5.01666667,6.32616272 5.97925445,7.30769231 7.16666667,7.30769231 C8.35407888,7.30769231 9.31666667,6.32616272 9.31666667,5.11538462 L9.31666667,4.38461538 L12.1833333,4.38461538 L12.1833333,5.11538462 C12.1833334,6.3261627 13.1459211,7.30769224 14.3333333,7.30769224 C15.5207455,7.30769224 16.4833333,6.3261627 16.4833333,5.11538462 L16.4833333,4.38461538 L19.35,4.38461538 L19.35,5.11538462 C19.35,6.32616272 20.3125878,7.30769231 21.5,7.30769231 C22.6874122,7.30769231 23.65,6.32616272 23.65,5.11538462 L23.65,4.38461538 L26.5166667,4.38461538 L26.5166667,5.11538462 C26.5166667,6.32616272 27.4792545,7.30769231 28.6666667,7.30769231 C29.8540789,7.30769231 30.8166667,6.32616272 30.8166667,5.11538462 L30.8166667,4.38461538 L33.6833333,4.38461538 L33.6833333,5.11538462 C33.6833333,6.32616272 34.6459211,7.30769231 35.8333333,7.30769231 C37.0207455,7.30769231 37.9833333,6.32616272 37.9833333,5.11538462 L37.9833333,4.38461538 L41.5666667,4.38461538 L41.5666667,8.76923077 L1.43333333,8.76923077 L1.43333333,4.38461538 Z M1.43333333,36.5384615 L1.43333333,10.2307692 L41.5666667,10.2307692 L41.5666667,36.5384615 L1.43333333,36.5384615 Z M16.4833333,20.4615385 L12.1833333,20.4615385 C11.7875293,20.4615385 11.4666667,20.788715 11.4666667,21.1923077 L11.4666667,25.5769231 C11.4666667,25.9805158 11.7875293,26.3076923 12.1833333,26.3076923 L16.4833333,26.3076923 C16.8791374,26.3076923 17.2,25.9805158 17.2,25.5769231 L17.2,21.1923077 C17.2,20.788715 16.8791374,20.4615385 16.4833333,20.4615385 Z M15.7666667,24.8461538 L12.9,24.8461538 L12.9,21.9230769 L15.7666667,21.9230769 L15.7666667,24.8461538 Z M9.31666667,20.4615385 L5.01666667,20.4615385 C4.6208626,20.4615385 4.3,20.788715 4.3,21.1923077 L4.3,25.5769231 C4.3,25.9805158 4.6208626,26.3076923 5.01666667,26.3076923 L9.31666667,26.3076923 C9.71247074,26.3076923 10.0333333,25.9805158 10.0333333,25.5769231 L10.0333333,21.1923077 C10.0333333,20.788715 9.71247074,20.4615385 9.31666667,20.4615385 Z M8.6,24.8461538 L5.73333333,24.8461538 L5.73333333,21.9230769 L8.6,21.9230769 L8.6,24.8461538 Z M23.65,20.4615385 L19.35,20.4615385 C18.9541959,20.4615385 18.6333333,20.788715 18.6333333,21.1923077 L18.6333333,25.5769231 C18.6333333,25.9805158 18.9541959,26.3076923 19.35,26.3076923 L23.65,26.3076923 C24.0458041,26.3076923 24.3666667,25.9805158 24.3666667,25.5769231 L24.3666667,21.1923077 C24.3666667,20.788715 24.0458041,20.4615385 23.65,20.4615385 Z M22.9333333,24.8461538 L20.0666667,24.8461538 L20.0666667,21.9230769 L22.9333333,21.9230769 L22.9333333,24.8461538 Z M30.8166667,20.4615385 L26.5166667,20.4615385 C26.1208626,20.4615385 25.8,20.788715 25.8,21.1923077 L25.8,25.5769231 C25.8,25.9805158 26.1208626,26.3076923 26.5166667,26.3076923 L30.8166667,26.3076923 C31.2124707,26.3076923 31.5333333,25.9805158 31.5333333,25.5769231 L31.5333333,21.1923077 C31.5333333,20.788715 31.2124707,20.4615385 30.8166667,20.4615385 Z M30.1,24.8461538 L27.2333333,24.8461538 L27.2333333,21.9230769 L30.1,21.9230769 L30.1,24.8461538 Z M37.9833333,20.4615385 L33.6833333,20.4615385 C33.2875293,20.4615385 32.9666667,20.788715 32.9666667,21.1923077 L32.9666667,25.5769231 C32.9666667,25.9805158 33.2875293,26.3076923 33.6833333,26.3076923 L37.9833333,26.3076923 C38.3791374,26.3076923 38.7,25.9805158 38.7,25.5769231 L38.7,21.1923077 C38.7,20.788715 38.3791374,20.4615385 37.9833333,20.4615385 Z M37.2666667,24.8461538 L34.4,24.8461538 L34.4,21.9230769 L37.2666667,21.9230769 L37.2666667,24.8461538 Z M23.65,13.1538462 L19.35,13.1538462 C18.9541959,13.1538462 18.6333333,13.4810227 18.6333333,13.8846154 L18.6333333,18.2692308 C18.6333333,18.6728235 18.9541959,19 19.35,19 L23.65,19 C24.0458041,19 24.3666667,18.6728235 24.3666667,18.2692308 L24.3666667,13.8846154 C24.3666667,13.4810227 24.0458041,13.1538462 23.65,13.1538462 Z M21.9197875,14.6153846 L20.0666667,16.5049712 L20.0666667,14.6153846 L21.9197875,14.6153846 Z M21.0802125,17.5384615 L22.9333333,15.648875 L22.9333333,17.5384615 L21.0802125,17.5384615 Z M30.8166667,13.1538462 L26.5166667,13.1538462 C26.1208626,13.1538462 25.8,13.4810227 25.8,13.8846154 L25.8,18.2692308 C25.8,18.6728235 26.1208626,19 26.5166667,19 L30.8166667,19 C31.2124707,19 31.5333333,18.6728235 31.5333333,18.2692308 L31.5333333,13.8846154 C31.5333333,13.4810227 31.2124707,13.1538462 30.8166667,13.1538462 Z M29.0864542,14.6153846 L27.2333333,16.5049712 L27.2333333,14.6153846 L29.0864542,14.6153846 Z M28.2468792,17.5384615 L30.1,15.648875 L30.1,17.5384615 L28.2468792,17.5384615 Z M37.9833333,13.1538462 L33.6833333,13.1538462 C33.2875293,13.1538462 32.9666667,13.4810227 32.9666667,13.8846154 L32.9666667,18.2692308 C32.9666667,18.6728235 33.2875293,19 33.6833333,19 L37.9833333,19 C38.3791374,19 38.7,18.6728235 38.7,18.2692308 L38.7,13.8846154 C38.7,13.4810227 38.3791374,13.1538462 37.9833333,13.1538462 Z M37.2666667,17.5384615 L34.4,17.5384615 L34.4,14.6153846 L37.2666667,14.6153846 L37.2666667,17.5384615 Z M16.4833333,27.7692308 L12.1833333,27.7692308 C11.7875293,27.7692308 11.4666667,28.0964073 11.4666667,28.5 L11.4666667,32.8846154 C11.4666667,33.2882081 11.7875293,33.6153846 12.1833333,33.6153846 L16.4833333,33.6153846 C16.8791374,33.6153846 17.2,33.2882081 17.2,32.8846154 L17.2,28.5 C17.2,28.0964073 16.8791374,27.7692308 16.4833333,27.7692308 Z M15.7666667,32.1538462 L12.9,32.1538462 L12.9,29.2307692 L15.7666667,29.2307692 L15.7666667,32.1538462 Z M9.31666667,27.7692308 L5.01666667,27.7692308 C4.6208626,27.7692308 4.3,28.0964073 4.3,28.5 L4.3,32.8846154 C4.3,33.2882081 4.6208626,33.6153846 5.01666667,33.6153846 L9.31666667,33.6153846 C9.71247074,33.6153846 10.0333333,33.2882081 10.0333333,32.8846154 L10.0333333,28.5 C10.0333333,28.0964073 9.71247074,27.7692308 9.31666667,27.7692308 Z M8.6,32.1538462 L5.73333333,32.1538462 L5.73333333,29.2307692 L8.6,29.2307692 L8.6,32.1538462 Z M23.65,27.7692308 L19.35,27.7692308 C18.9541959,27.7692308 18.6333333,28.0964073 18.6333333,28.5 L18.6333333,32.8846154 C18.6333333,33.2882081 18.9541959,33.6153846 19.35,33.6153846 L23.65,33.6153846 C24.0458041,33.6153846 24.3666667,33.2882081 24.3666667,32.8846154 L24.3666667,28.5 C24.3666667,28.0964073 24.0458041,27.7692308 23.65,27.7692308 Z M22.9333333,32.1538462 L20.0666667,32.1538462 L20.0666667,29.2307692 L22.9333333,29.2307692 L22.9333333,32.1538462 Z M30.8166667,27.7692308 L26.5166667,27.7692308 C26.1208626,27.7692308 25.8,28.0964073 25.8,28.5 L25.8,32.8846154 C25.8,33.2882081 26.1208626,33.6153846 26.5166667,33.6153846 L30.8166667,33.6153846 C31.2124707,33.6153846 31.5333333,33.2882081 31.5333333,32.8846154 L31.5333333,28.5 C31.5333333,28.0964073 31.2124707,27.7692308 30.8166667,27.7692308 Z M30.1,32.1538462 L27.2333333,32.1538462 L27.2333333,29.2307692 L30.1,29.2307692 L30.1,32.1538462 Z M37.9833333,27.7692308 L33.6833333,27.7692308 C33.2875293,27.7692308 32.9666667,28.0964073 32.9666667,28.5 L32.9666667,32.8846154 C32.9666667,33.2882081 33.2875293,33.6153846 33.6833333,33.6153846 L37.9833333,33.6153846 C38.3791374,33.6153846 38.7,33.2882081 38.7,32.8846154 L38.7,28.5 C38.7,28.0964073 38.3791374,27.7692308 37.9833333,27.7692308 Z M37.2666667,32.1538462 L34.4,32.1538462 L34.4,29.2307692 L37.2666667,29.2307692 L37.2666667,32.1538462 Z M16.4833333,13.1538462 L12.1833333,13.1538462 C11.7875293,13.1538462 11.4666667,13.4810227 11.4666667,13.8846154 L11.4666667,18.2692308 C11.4666667,18.6728235 11.7875293,19 12.1833333,19 L16.4833333,19 C16.8791374,19 17.2,18.6728235 17.2,18.2692308 L17.2,13.8846154 C17.2,13.4810227 16.8791374,13.1538462 16.4833333,13.1538462 Z M14.7531208,14.6153846 L12.9,16.5049712 L12.9,14.6153846 L14.7531208,14.6153846 Z M13.9135458,17.5384615 L15.7666667,15.648875 L15.7666667,17.5384615 L13.9135458,17.5384615 Z" id="Shape"></path>
            </g>
        </g>
    </g>
</svg>