<?xml version="1.0" encoding="UTF-8" standalone="no"?>
<svg width="43px" height="32px" viewBox="0 0 43 32" version="1.1" xmlns="http://www.w3.org/2000/svg" xmlns:xlink="http://www.w3.org/1999/xlink">
    <!-- Generator: Sketch 50.2 (55047) - http://www.bohemiancoding.com/sketch -->
    <title>003-book</title>
    <desc>Created with Sketch.</desc>
    <defs>
        <linearGradient x1="100%" y1="50%" x2="0%" y2="50%" id="linearGradient-1">
            <stop stop-color="#2AFFFF" offset="0%"></stop>
            <stop stop-color="#0068FF" offset="100%"></stop>
        </linearGradient>
    </defs>
    <g id="Page-1" stroke="none" stroke-width="1" fill="none" fill-rule="evenodd">
        <g id="Landing-Page-Cubo" transform="translate(-585.000000, -3577.000000)" fill="url(#linearGradient-1)" fill-rule="nonzero">
            <g id="003-book" transform="translate(585.000000, 3577.000000)">
                <path d="M42.2833333,2.18181818 L40.1333333,2.18181818 L40.1333333,0.727272727 C40.1333333,0.325611091 39.8124707,0 39.4166667,0 L24.3666667,0 C23.2382245,8.47078325e-05 22.1758681,0.540067222 21.5,1.45709091 C20.8241319,0.540067222 19.7617755,8.47078325e-05 18.6333333,0 L3.58333333,0 C3.18752926,0 2.86666667,0.325611091 2.86666667,0.727272727 L2.86666667,2.18181818 L0.716666667,2.18181818 C0.320862596,2.18181818 0,2.50742927 0,2.90909091 L0,31.2727273 C0,31.6743889 0.320862596,32 0.716666667,32 L42.2833333,32 C42.6791374,32 43,31.6743889 43,31.2727273 L43,2.90909091 C43,2.50742927 42.6791374,2.18181818 42.2833333,2.18181818 Z M4.3,26.1818182 L18.6333333,26.1818182 C19.5440306,26.1829823 20.3555416,26.7653873 20.6600667,27.6363636 L4.3,27.6363636 L4.3,26.1818182 Z M24.3666667,1.45454545 L38.7,1.45454545 L38.7,24.7272727 L24.3666667,24.7272727 C23.5908911,24.7264507 22.8360314,24.9824966 22.2166667,25.4565455 L22.2166667,3.63636364 C22.2179996,2.43193948 23.179807,1.45589815 24.3666667,1.45454545 Z M38.7,26.1818182 L38.7,27.6363636 L22.3399333,27.6363636 C22.6444584,26.7653873 23.4559694,26.1829823 24.3666667,26.1818182 L38.7,26.1818182 Z M4.3,1.45454545 L18.6333333,1.45454545 C19.820193,1.45589815 20.7820004,2.43193948 20.7833333,3.63636364 L20.7833333,25.4562727 C20.1639224,24.982345 19.4090739,24.7263987 18.6333333,24.7272727 L4.3,24.7272727 L4.3,1.45454545 Z M41.5666667,30.5454545 L1.43333333,30.5454545 L1.43333333,3.63636364 L2.86666667,3.63636364 L2.86666667,28.3636364 C2.86666667,28.765298 3.18752926,29.0909091 3.58333333,29.0909091 L39.4166667,29.0909091 C39.8124707,29.0909091 40.1333333,28.765298 40.1333333,28.3636364 L40.1333333,3.63636364 L41.5666667,3.63636364 L41.5666667,30.5454545 Z M5.73333333,4.36363636 C5.73333333,3.96197473 6.05419593,3.63636364 6.45,3.63636364 L13.6166667,3.63636364 C14.0124707,3.63636364 14.3333333,3.96197473 14.3333333,4.36363636 C14.3333333,4.765298 14.0124707,5.09090909 13.6166667,5.09090909 L6.45,5.09090909 C6.05419593,5.09090909 5.73333333,4.765298 5.73333333,4.36363636 Z M15.7666667,4.36363636 C15.7666667,3.96197473 16.0875293,3.63636364 16.4833333,3.63636364 L18.6333333,3.63636364 C19.0291374,3.63636364 19.35,3.96197473 19.35,4.36363636 C19.35,4.765298 19.0291374,5.09090909 18.6333333,5.09090909 L16.4833333,5.09090909 C16.0875293,5.09090909 15.7666667,4.765298 15.7666667,4.36363636 Z M19.35,10.1818182 C19.35,10.5834798 19.0291374,10.9090909 18.6333333,10.9090909 L11.4666667,10.9090909 C11.0708626,10.9090909 10.75,10.5834798 10.75,10.1818182 C10.75,9.78015655 11.0708626,9.45454545 11.4666667,9.45454545 L18.6333333,9.45454545 C19.0291374,9.45454545 19.35,9.78015655 19.35,10.1818182 Z M5.73333333,10.1818182 C5.73333333,9.78015655 6.05419593,9.45454545 6.45,9.45454545 L8.6,9.45454545 C8.99580407,9.45454545 9.31666667,9.78015655 9.31666667,10.1818182 C9.31666667,10.5834798 8.99580407,10.9090909 8.6,10.9090909 L6.45,10.9090909 C6.05419593,10.9090909 5.73333333,10.5834798 5.73333333,10.1818182 Z M5.73333333,7.27272727 C5.73333333,6.87106564 6.05419593,6.54545455 6.45,6.54545455 L18.6333333,6.54545455 C19.0291374,6.54545455 19.35,6.87106564 19.35,7.27272727 C19.35,7.67438891 19.0291374,8 18.6333333,8 L6.45,8 C6.05419593,8 5.73333333,7.67438891 5.73333333,7.27272727 Z M5.73333333,16 C5.73333333,15.5983384 6.05419593,15.2727273 6.45,15.2727273 L13.6166667,15.2727273 C14.0124707,15.2727273 14.3333333,15.5983384 14.3333333,16 C14.3333333,16.4016616 14.0124707,16.7272727 13.6166667,16.7272727 L6.45,16.7272727 C6.05419593,16.7272727 5.73333333,16.4016616 5.73333333,16 Z M19.35,16 C19.35,16.4016616 19.0291374,16.7272727 18.6333333,16.7272727 L16.4833333,16.7272727 C16.0875293,16.7272727 15.7666667,16.4016616 15.7666667,16 C15.7666667,15.5983384 16.0875293,15.2727273 16.4833333,15.2727273 L18.6333333,15.2727273 C19.0291374,15.2727273 19.35,15.5983384 19.35,16 Z M18.6333333,22.5454545 L11.4666667,22.5454545 C11.0708626,22.5454545 10.75,22.2198435 10.75,21.8181818 C10.75,21.4165202 11.0708626,21.0909091 11.4666667,21.0909091 L18.6333333,21.0909091 C19.0291374,21.0909091 19.35,21.4165202 19.35,21.8181818 C19.35,22.2198435 19.0291374,22.5454545 18.6333333,22.5454545 Z M9.31666667,21.8181818 C9.31666667,22.2198435 8.99580407,22.5454545 8.6,22.5454545 L6.45,22.5454545 C6.05419593,22.5454545 5.73333333,22.2198435 5.73333333,21.8181818 C5.73333333,21.4165202 6.05419593,21.0909091 6.45,21.0909091 L8.6,21.0909091 C8.99580407,21.0909091 9.31666667,21.4165202 9.31666667,21.8181818 Z M5.73333333,18.9090909 C5.73333333,18.5074293 6.05419593,18.1818182 6.45,18.1818182 L18.6333333,18.1818182 C19.0291374,18.1818182 19.35,18.5074293 19.35,18.9090909 C19.35,19.3107525 19.0291374,19.6363636 18.6333333,19.6363636 L6.45,19.6363636 C6.05419593,19.6363636 5.73333333,19.3107525 5.73333333,18.9090909 Z M5.73333333,13.0909091 C5.73333333,12.6892475 6.05419593,12.3636364 6.45,12.3636364 L18.6333333,12.3636364 C19.0291374,12.3636364 19.35,12.6892475 19.35,13.0909091 C19.35,13.4925707 19.0291374,13.8181818 18.6333333,13.8181818 L6.45,13.8181818 C6.05419593,13.8181818 5.73333333,13.4925707 5.73333333,13.0909091 Z M28.6666667,4.36363636 C28.6666667,3.96197473 28.9875293,3.63636364 29.3833333,3.63636364 L36.55,3.63636364 C36.9458041,3.63636364 37.2666667,3.96197473 37.2666667,4.36363636 C37.2666667,4.765298 36.9458041,5.09090909 36.55,5.09090909 L29.3833333,5.09090909 C28.9875293,5.09090909 28.6666667,4.765298 28.6666667,4.36363636 Z M23.65,4.36363636 C23.65,3.96197473 23.9708626,3.63636364 24.3666667,3.63636364 L26.5166667,3.63636364 C26.9124707,3.63636364 27.2333333,3.96197473 27.2333333,4.36363636 C27.2333333,4.765298 26.9124707,5.09090909 26.5166667,5.09090909 L24.3666667,5.09090909 C23.9708626,5.09090909 23.65,4.765298 23.65,4.36363636 Z M23.65,10.1818182 C23.65,9.78015655 23.9708626,9.45454545 24.3666667,9.45454545 L31.5333333,9.45454545 C31.9291374,9.45454545 32.25,9.78015655 32.25,10.1818182 C32.25,10.5834798 31.9291374,10.9090909 31.5333333,10.9090909 L24.3666667,10.9090909 C23.9708626,10.9090909 23.65,10.5834798 23.65,10.1818182 Z M37.2666667,10.1818182 C37.2666667,10.5834798 36.9458041,10.9090909 36.55,10.9090909 L34.4,10.9090909 C34.0041959,10.9090909 33.6833333,10.5834798 33.6833333,10.1818182 C33.6833333,9.78015655 34.0041959,9.45454545 34.4,9.45454545 L36.55,9.45454545 C36.9458041,9.45454545 37.2666667,9.78015655 37.2666667,10.1818182 Z M23.65,7.27272727 C23.65,6.87106564 23.9708626,6.54545455 24.3666667,6.54545455 L36.55,6.54545455 C36.9458041,6.54545455 37.2666667,6.87106564 37.2666667,7.27272727 C37.2666667,7.67438891 36.9458041,8 36.55,8 L24.3666667,8 C23.9708626,8 23.65,7.67438891 23.65,7.27272727 Z M37.2666667,16 C37.2666667,16.4016616 36.9458041,16.7272727 36.55,16.7272727 L29.3833333,16.7272727 C28.9875293,16.7272727 28.6666667,16.4016616 28.6666667,16 C28.6666667,15.5983384 28.9875293,15.2727273 29.3833333,15.2727273 L36.55,15.2727273 C36.9458041,15.2727273 37.2666667,15.5983384 37.2666667,16 Z M23.65,16 C23.65,15.5983384 23.9708626,15.2727273 24.3666667,15.2727273 L26.5166667,15.2727273 C26.9124707,15.2727273 27.2333333,15.5983384 27.2333333,16 C27.2333333,16.4016616 26.9124707,16.7272727 26.5166667,16.7272727 L24.3666667,16.7272727 C23.9708626,16.7272727 23.65,16.4016616 23.65,16 Z M23.65,21.8181818 C23.65,21.4165202 23.9708626,21.0909091 24.3666667,21.0909091 L31.5333333,21.0909091 C31.9291374,21.0909091 32.25,21.4165202 32.25,21.8181818 C32.25,22.2198435 31.9291374,22.5454545 31.5333333,22.5454545 L24.3666667,22.5454545 C23.9708626,22.5454545 23.65,22.2198435 23.65,21.8181818 Z M37.2666667,21.8181818 C37.2666667,22.2198435 36.9458041,22.5454545 36.55,22.5454545 L34.4,22.5454545 C34.0041959,22.5454545 33.6833333,22.2198435 33.6833333,21.8181818 C33.6833333,21.4165202 34.0041959,21.0909091 34.4,21.0909091 L36.55,21.0909091 C36.9458041,21.0909091 37.2666667,21.4165202 37.2666667,21.8181818 Z M23.65,18.9090909 C23.65,18.5074293 23.9708626,18.1818182 24.3666667,18.1818182 L36.55,18.1818182 C36.9458041,18.1818182 37.2666667,18.5074293 37.2666667,18.9090909 C37.2666667,19.3107525 36.9458041,19.6363636 36.55,19.6363636 L24.3666667,19.6363636 C23.9708626,19.6363636 23.65,19.3107525 23.65,18.9090909 Z M23.65,13.0909091 C23.65,12.6892475 23.9708626,12.3636364 24.3666667,12.3636364 L36.55,12.3636364 C36.9458041,12.3636364 37.2666667,12.6892475 37.2666667,13.0909091 C37.2666667,13.4925707 36.9458041,13.8181818 36.55,13.8181818 L24.3666667,13.8181818 C23.9708626,13.8181818 23.65,13.4925707 23.65,13.0909091 Z" id="Shape"></path>
            </g>
        </g>
    </g>
</svg>