<?xml version="1.0" encoding="UTF-8" standalone="no"?>
<svg width="33px" height="43px" viewBox="0 0 33 43" version="1.1" xmlns="http://www.w3.org/2000/svg" xmlns:xlink="http://www.w3.org/1999/xlink">
    <!-- Generator: Sketch 50.2 (55047) - http://www.bohemiancoding.com/sketch -->
    <title>004-calculator</title>
    <desc>Created with Sketch.</desc>
    <defs>
        <linearGradient x1="100%" y1="50%" x2="0%" y2="50%" id="linearGradient-1">
            <stop stop-color="#2AFFFF" offset="0%"></stop>
            <stop stop-color="#0068FF" offset="100%"></stop>
        </linearGradient>
    </defs>
    <g id="Page-1" stroke="none" stroke-width="1" fill="none" fill-rule="evenodd">
        <g id="Landing-Page-Cubo" transform="translate(-589.000000, -3399.000000)" fill="url(#linearGradient-1)" fill-rule="nonzero">
            <g id="004-calculator" transform="translate(589.000000, 3399.000000)">
                <path d="M29.4130435,43 C31.393143,42.9977784 32.9977761,41.3947661 33,39.4166667 L33,3.58333333 C32.9977761,1.60523393 31.393143,0.00222161495 29.4130435,0 L3.58695652,0 C1.60685702,0.00222161495 0.00222386128,1.60523393 -2.84217094e-14,3.58333333 L-2.84217094e-14,39.4166667 C0.00222386128,41.3947661 1.60685702,42.9977784 3.58695652,43 L29.4130435,43 Z M1.43478261,39.4166667 L1.43478261,3.58333333 C1.43616623,2.39649413 2.39891728,1.43471556 3.58695652,1.43333333 L29.4130435,1.43333333 C30.6010827,1.43471556 31.5638338,2.39649413 31.5652174,3.58333333 L31.5652174,39.4166667 C31.5638338,40.6035059 30.6010827,41.5652844 29.4130435,41.5666667 L3.58695652,41.5666667 C2.39891728,41.5652844 1.43616623,40.6035059 1.43478261,39.4166667 Z M3.58695652,10.75 L29.4130435,10.75 C29.8092478,10.75 30.1304348,10.4291374 30.1304348,10.0333333 L30.1304348,4.3 C30.1304348,3.90419593 29.8092478,3.58333333 29.4130435,3.58333333 L3.58695652,3.58333333 C3.19075224,3.58333333 2.86956522,3.90419593 2.86956522,4.3 L2.86956522,10.0333333 C2.86956522,10.4291374 3.19075224,10.75 3.58695652,10.75 Z M4.30434783,5.01666667 L28.6956522,5.01666667 L28.6956522,9.31666667 L4.30434783,9.31666667 L4.30434783,5.01666667 Z M22.2391304,12.1833333 L17.9347826,12.1833333 C17.5385783,12.1833333 17.2173913,12.5041959 17.2173913,12.9 L17.2173913,17.2 C17.2173913,17.5958041 17.5385783,17.9166667 17.9347826,17.9166667 L22.2391304,17.9166667 C22.6353347,17.9166667 22.9565217,17.5958041 22.9565217,17.2 L22.9565217,12.9 C22.9565217,12.5041959 22.6353347,12.1833333 22.2391304,12.1833333 Z M21.5217391,16.4833333 L18.6521739,16.4833333 L18.6521739,13.6166667 L21.5217391,13.6166667 L21.5217391,16.4833333 Z M29.4130435,12.1833333 L25.1086957,12.1833333 C24.7124914,12.1833333 24.3913043,12.5041959 24.3913043,12.9 L24.3913043,17.2 C24.3913043,17.5958041 24.7124914,17.9166667 25.1086957,17.9166667 L29.4130435,17.9166667 C29.8092478,17.9166667 30.1304348,17.5958041 30.1304348,17.2 L30.1304348,12.9 C30.1304348,12.5041959 29.8092478,12.1833333 29.4130435,12.1833333 Z M28.6956522,16.4833333 L25.826087,16.4833333 L25.826087,13.6166667 L28.6956522,13.6166667 L28.6956522,16.4833333 Z M22.2391304,19.35 L17.9347826,19.35 C17.5385783,19.35 17.2173913,19.6708626 17.2173913,20.0666667 L17.2173913,24.3666667 C17.2173913,24.7624707 17.5385783,25.0833333 17.9347826,25.0833333 L22.2391304,25.0833333 C22.6353347,25.0833333 22.9565217,24.7624707 22.9565217,24.3666667 L22.9565217,20.0666667 C22.9565217,19.6708626 22.6353347,19.35 22.2391304,19.35 Z M21.5217391,23.65 L18.6521739,23.65 L18.6521739,20.7833333 L21.5217391,20.7833333 L21.5217391,23.65 Z M29.4130435,19.35 L25.1086957,19.35 C24.7124914,19.35 24.3913043,19.6708626 24.3913043,20.0666667 L24.3913043,24.3666667 C24.3913043,24.7624707 24.7124914,25.0833333 25.1086957,25.0833333 L29.4130435,25.0833333 C29.8092478,25.0833333 30.1304348,24.7624707 30.1304348,24.3666667 L30.1304348,20.0666667 C30.1304348,19.6708626 29.8092478,19.35 29.4130435,19.35 Z M28.6956522,23.65 L25.826087,23.65 L25.826087,20.7833333 L28.6956522,20.7833333 L28.6956522,23.65 Z M22.2391304,26.5166667 L17.9347826,26.5166667 C17.5385783,26.5166667 17.2173913,26.8375293 17.2173913,27.2333333 L17.2173913,31.5333333 C17.2173913,31.9291374 17.5385783,32.25 17.9347826,32.25 L22.2391304,32.25 C22.6353347,32.25 22.9565217,31.9291374 22.9565217,31.5333333 L22.9565217,27.2333333 C22.9565217,26.8375293 22.6353347,26.5166667 22.2391304,26.5166667 Z M21.5217391,30.8166667 L18.6521739,30.8166667 L18.6521739,27.95 L21.5217391,27.95 L21.5217391,30.8166667 Z M15.0652174,26.5166667 L10.7608696,26.5166667 C10.3646653,26.5166667 10.0434783,26.8375293 10.0434783,27.2333333 L10.0434783,31.5333333 C10.0434783,31.9291374 10.3646653,32.25 10.7608696,32.25 L15.0652174,32.25 C15.4614217,32.25 15.7826087,31.9291374 15.7826087,31.5333333 L15.7826087,27.2333333 C15.7826087,26.8375293 15.4614217,26.5166667 15.0652174,26.5166667 Z M14.3478261,30.8166667 L11.4782609,30.8166667 L11.4782609,27.95 L14.3478261,27.95 L14.3478261,30.8166667 Z M3.58695652,32.25 L7.89130435,32.25 C8.28750862,32.25 8.60869565,31.9291374 8.60869565,31.5333333 L8.60869565,27.2333333 C8.60869565,26.8375293 8.28750862,26.5166667 7.89130435,26.5166667 L3.58695652,26.5166667 C3.19075224,26.5166667 2.86956522,26.8375293 2.86956522,27.2333333 L2.86956522,31.5333333 C2.86956522,31.9291374 3.19075224,32.25 3.58695652,32.25 Z M4.30434783,27.95 L7.17391304,27.95 L7.17391304,30.8166667 L4.30434783,30.8166667 L4.30434783,27.95 Z M15.0652174,19.35 L10.7608696,19.35 C10.3646653,19.35 10.0434783,19.6708626 10.0434783,20.0666667 L10.0434783,24.3666667 C10.0434783,24.7624707 10.3646653,25.0833333 10.7608696,25.0833333 L15.0652174,25.0833333 C15.4614217,25.0833333 15.7826087,24.7624707 15.7826087,24.3666667 L15.7826087,20.0666667 C15.7826087,19.6708626 15.4614217,19.35 15.0652174,19.35 Z M14.3478261,23.65 L11.4782609,23.65 L11.4782609,20.7833333 L14.3478261,20.7833333 L14.3478261,23.65 Z M15.0652174,12.1833333 L10.7608696,12.1833333 C10.3646653,12.1833333 10.0434783,12.5041959 10.0434783,12.9 L10.0434783,17.2 C10.0434783,17.5958041 10.3646653,17.9166667 10.7608696,17.9166667 L15.0652174,17.9166667 C15.4614217,17.9166667 15.7826087,17.5958041 15.7826087,17.2 L15.7826087,12.9 C15.7826087,12.5041959 15.4614217,12.1833333 15.0652174,12.1833333 Z M14.3478261,16.4833333 L11.4782609,16.4833333 L11.4782609,13.6166667 L14.3478261,13.6166667 L14.3478261,16.4833333 Z M3.58695652,17.9166667 L7.89130435,17.9166667 C8.28750862,17.9166667 8.60869565,17.5958041 8.60869565,17.2 L8.60869565,12.9 C8.60869565,12.5041959 8.28750862,12.1833333 7.89130435,12.1833333 L3.58695652,12.1833333 C3.19075224,12.1833333 2.86956522,12.5041959 2.86956522,12.9 L2.86956522,17.2 C2.86956522,17.5958041 3.19075224,17.9166667 3.58695652,17.9166667 Z M4.30434783,13.6166667 L7.17391304,13.6166667 L7.17391304,16.4833333 L4.30434783,16.4833333 L4.30434783,13.6166667 Z M3.58695652,25.0833333 L7.89130435,25.0833333 C8.28750862,25.0833333 8.60869565,24.7624707 8.60869565,24.3666667 L8.60869565,20.0666667 C8.60869565,19.6708626 8.28750862,19.35 7.89130435,19.35 L3.58695652,19.35 C3.19075224,19.35 2.86956522,19.6708626 2.86956522,20.0666667 L2.86956522,24.3666667 C2.86956522,24.7624707 3.19075224,25.0833333 3.58695652,25.0833333 Z M4.30434783,20.7833333 L7.17391304,20.7833333 L7.17391304,23.65 L4.30434783,23.65 L4.30434783,20.7833333 Z M22.2391304,33.6833333 L17.9347826,33.6833333 C17.5385783,33.6833333 17.2173913,34.0041959 17.2173913,34.4 L17.2173913,38.7 C17.2173913,39.0958041 17.5385783,39.4166667 17.9347826,39.4166667 L22.2391304,39.4166667 C22.6353347,39.4166667 22.9565217,39.0958041 22.9565217,38.7 L22.9565217,34.4 C22.9565217,34.0041959 22.6353347,33.6833333 22.2391304,33.6833333 Z M21.5217391,37.9833333 L18.6521739,37.9833333 L18.6521739,35.1166667 L21.5217391,35.1166667 L21.5217391,37.9833333 Z M15.0652174,39.4166667 C15.4614217,39.4166667 15.7826087,39.0958041 15.7826087,38.7 L15.7826087,34.4 C15.7826087,34.0041959 15.4614217,33.6833333 15.0652174,33.6833333 L3.58695652,33.6833333 C3.19075224,33.6833333 2.86956522,34.0041959 2.86956522,34.4 L2.86956522,38.7 C2.86956522,39.0958041 3.19075224,39.4166667 3.58695652,39.4166667 L15.0652174,39.4166667 Z M4.30434783,35.1166667 L14.3478261,35.1166667 L14.3478261,37.9833333 L4.30434783,37.9833333 L4.30434783,35.1166667 Z M29.4130435,26.5166667 L25.1086957,26.5166667 C24.7124914,26.5166667 24.3913043,26.8375293 24.3913043,27.2333333 L24.3913043,38.7 C24.3913043,39.0958041 24.7124914,39.4166667 25.1086957,39.4166667 L29.4130435,39.4166667 C29.8092478,39.4166667 30.1304348,39.0958041 30.1304348,38.7 L30.1304348,27.2333333 C30.1304348,26.8375293 29.8092478,26.5166667 29.4130435,26.5166667 Z M28.6956522,37.9833333 L25.826087,37.9833333 L25.826087,27.95 L28.6956522,27.95 L28.6956522,37.9833333 Z M27.2608696,7.16666667 C27.2608696,7.56247074 26.9396825,7.88333333 26.5434783,7.88333333 C26.147274,7.88333333 25.826087,7.56247074 25.826087,7.16666667 C25.826087,6.7708626 26.147274,6.45 26.5434783,6.45 C26.9396825,6.45 27.2608696,6.7708626 27.2608696,7.16666667 Z M24.3913043,7.16666667 C24.3913043,7.56247074 24.0701173,7.88333333 23.673913,7.88333333 C23.2777088,7.88333333 22.9565217,7.56247074 22.9565217,7.16666667 C22.9565217,6.7708626 23.2777088,6.45 23.673913,6.45 C24.0701173,6.45 24.3913043,6.7708626 24.3913043,7.16666667 Z M21.5217391,7.16666667 C21.5217391,7.56247074 21.2005521,7.88333333 20.8043478,7.88333333 C20.4081435,7.88333333 20.0869565,7.56247074 20.0869565,7.16666667 C20.0869565,6.7708626 20.4081435,6.45 20.8043478,6.45 C21.2005521,6.45 21.5217391,6.7708626 21.5217391,7.16666667 Z" id="Shape"></path>
            </g>
        </g>
    </g>
</svg>