<?xml version="1.0" encoding="UTF-8" standalone="no"?>
<svg width="512px" height="393px" viewBox="0 0 512 393" version="1.1" xmlns="http://www.w3.org/2000/svg" xmlns:xlink="http://www.w3.org/1999/xlink">
    <!-- Generator: Sketch 50.2 (55047) - http://www.bohemiancoding.com/sketch -->
    <title>001-software</title>
    <desc>Created with Sketch.</desc>
    <defs>
        <linearGradient x1="100%" y1="50%" x2="0%" y2="50%" id="linearGradient-1">
            <stop stop-color="#2AFFFF" offset="0%"></stop>
            <stop stop-color="#0068FF" offset="100%"></stop>
        </linearGradient>
    </defs>
    <g id="Page-1" stroke="none" stroke-width="1" fill="none" fill-rule="evenodd">
        <g id="001-software" fill="url(#linearGradient-1)" fill-rule="nonzero">
            <path d="M491.708,309.112 L479.247,309.112 C481.776,304.728 483.231,299.649 483.231,294.235 L483.231,30.862 C483.231,14.387 469.828,0.985 453.353,0.985 L382.907,0.985 C378.764,0.985 375.407,4.343 375.407,8.485 C375.407,12.627 378.764,15.985 382.907,15.985 L453.353,15.985 C461.557,15.985 468.231,22.659 468.231,30.862 L468.231,294.235 C468.231,302.439 461.557,309.112 453.353,309.112 L58.437,309.112 C50.233,309.112 43.559,302.438 43.559,294.235 L43.559,30.862 C43.559,22.658 50.233,15.985 58.437,15.985 L347.897,15.985 C352.04,15.985 355.397,12.627 355.397,8.485 C355.397,4.343 352.04,0.985 347.897,0.985 L58.437,0.985 C41.962,0.985 28.559,14.388 28.559,30.862 L28.559,294.235 C28.559,299.65 30.014,304.728 32.543,309.112 L20.082,309.112 C9.009,309.112 5.68434189e-14,318.121 5.68434189e-14,329.194 C5.68434189e-14,364.269 28.536,392.805 63.611,392.805 L96.245,392.805 C100.388,392.805 103.745,389.447 103.745,385.305 C103.745,381.163 100.388,377.805 96.245,377.805 L63.611,377.805 C36.807,377.806 15,355.999 15,329.194 C15,326.392 17.279,324.112 20.082,324.112 L202.407,324.112 L202.407,331.414 C202.407,343.745 212.438,353.776 224.769,353.776 L287.02,353.776 C299.351,353.776 309.382,343.744 309.382,331.414 L309.382,324.112 L491.707,324.112 C494.51,324.112 496.789,326.392 496.789,329.194 C496.789,355.998 474.982,377.805 448.178,377.805 L130.896,377.805 C126.753,377.805 123.396,381.163 123.396,385.305 C123.396,389.447 126.753,392.805 130.896,392.805 L448.178,392.805 C483.253,392.805 511.789,364.269 511.789,329.194 C511.79,318.121 502.781,309.112 491.708,309.112 Z M294.383,331.414 C294.383,335.474 291.08,338.776 287.021,338.776 L224.77,338.776 C220.71,338.776 217.408,335.473 217.408,331.414 L217.408,324.112 L294.384,324.112 L294.384,331.414 L294.383,331.414 Z" id="Shape"></path>
            <circle id="Oval" cx="110.55" cy="64.63" r="7.5"></circle>
            <circle id="Oval" cx="140.273" cy="64.63" r="7.5"></circle>
            <circle id="Oval" cx="169.996" cy="64.63" r="7.5"></circle>
            <path d="M60.755,44.17 L60.757,280.925 C60.757,289.693 67.89,296.826 76.657,296.826 L435.133,296.826 C443.901,296.826 451.033,289.693 451.033,280.925 L451.035,44.17 C451.035,35.403 443.902,28.27 435.135,28.27 L76.655,28.27 C67.888,28.27 60.755,35.403 60.755,44.17 Z M436.033,280.925 C436.033,281.422 435.629,281.826 435.133,281.826 L76.657,281.826 C76.161,281.826 75.757,281.422 75.757,280.925 L75.757,100.99 L177.775,100.99 C164.391,117.938 156.393,139.326 156.393,162.548 C156.393,217.413 201.029,262.049 255.894,262.049 C310.759,262.049 355.396,217.413 355.396,162.548 C355.396,139.326 347.398,117.938 334.014,100.99 L436.033,100.99 L436.033,280.925 Z M255.895,78.047 C302.49,78.047 340.397,115.954 340.397,162.548 C340.397,209.142 302.49,247.049 255.895,247.049 C209.301,247.049 171.394,209.142 171.394,162.548 C171.394,115.954 209.301,78.047 255.895,78.047 Z M435.133,43.271 C435.629,43.271 436.033,43.675 436.033,44.172 L436.033,85.991 L319.379,85.991 C302.139,71.67 280.005,63.048 255.894,63.048 C231.783,63.048 209.649,71.671 192.41,85.991 L75.757,85.991 L75.757,44.172 C75.757,43.675 76.161,43.271 76.657,43.271 L435.133,43.271 Z" id="Shape"></path>
            <path d="M221.967,128.22 C230.638,119.753 242.089,115.089 254.211,115.089 C278.044,115.089 297.714,133.247 300.118,156.454 L297.599,153.14 C295.093,149.843 290.389,149.2 287.089,151.707 C283.791,154.213 283.15,158.918 285.655,162.216 L300.76,182.092 C302.179,183.958 304.388,185.054 306.732,185.054 C309.076,185.054 311.285,183.958 312.704,182.092 L327.808,162.216 C330.314,158.918 329.672,154.213 326.374,151.707 C323.075,149.199 318.37,149.843 315.864,153.14 L314.963,154.326 C311.514,123.852 285.59,100.089 254.209,100.089 C238.147,100.089 222.975,106.268 211.484,117.488 C208.521,120.382 208.464,125.13 211.358,128.093 C214.253,131.056 219,131.115 221.967,128.22 Z" id="Shape"></path>
            <path d="M257.579,225.007 C273.641,225.007 288.813,218.828 300.304,207.608 C303.267,204.714 303.324,199.966 300.43,197.003 C297.536,194.041 292.788,193.982 289.824,196.877 C281.153,205.344 269.702,210.008 257.58,210.008 C233.747,210.008 214.077,191.85 211.673,168.643 L214.192,171.957 C216.698,175.254 221.402,175.897 224.702,173.39 C228,170.884 228.641,166.179 226.136,162.881 L211.031,143.005 C209.612,141.139 207.403,140.043 205.059,140.043 C202.715,140.043 200.506,141.139 199.087,143.005 L183.98,162.88 C181.474,166.178 182.116,170.883 185.414,173.389 C186.77,174.42 188.365,174.918 189.946,174.918 C192.21,174.918 194.448,173.897 195.924,171.956 L196.825,170.77 C200.274,201.245 226.198,225.007 257.579,225.007 Z" id="Shape"></path>
        </g>
    </g>
</svg>