<?xml version="1.0" encoding="UTF-8" standalone="no"?>
<svg width="43px" height="30px" viewBox="0 0 43 30" version="1.1" xmlns="http://www.w3.org/2000/svg" xmlns:xlink="http://www.w3.org/1999/xlink">
    <!-- Generator: Sketch 50.2 (55047) - http://www.bohemiancoding.com/sketch -->
    <title>006-certificate</title>
    <desc>Created with Sketch.</desc>
    <defs>
        <linearGradient x1="100%" y1="50%" x2="0%" y2="50%" id="linearGradient-1">
            <stop stop-color="#2AFFFF" offset="0%"></stop>
            <stop stop-color="#0068FF" offset="100%"></stop>
        </linearGradient>
    </defs>
    <g id="Page-1" stroke="none" stroke-width="1" fill="none" fill-rule="evenodd">
        <g id="Landing-Page-Cubo" transform="translate(-117.000000, -3399.000000)" fill="url(#linearGradient-1)" fill-rule="nonzero">
            <g id="006-certificate" transform="translate(117.000000, 3399.000000)">
                <path d="M42.2833333,0 L0.716666667,0 C0.320862596,0 0,0.319796607 0,0.714285714 L0,29.2857143 C0,29.6802034 0.320862596,30 0.716666667,30 L42.2833333,30 C42.6791374,30 43,29.6802034 43,29.2857143 L43,0.714285714 C43,0.319796607 42.6791374,0 42.2833333,0 Z M41.5666667,28.5714286 L1.43333333,28.5714286 L1.43333333,1.42857143 L41.5666667,1.42857143 L41.5666667,28.5714286 Z M3.58333333,25 C3.5996375,25 5.22315625,25.0189286 5.77015208,26.6544643 C5.86770114,26.9461164 6.14154448,27.1428415 6.45,27.1428571 L36.55,27.1428571 C36.8584885,27.1428799 37.132378,26.9461476 37.2299375,26.6544643 C37.7683333,25.04375 39.3547646,25.0009821 39.4166667,25 C39.8124707,25 40.1333333,24.6802034 40.1333333,24.2857143 L40.1333333,5.71428571 C40.1333333,5.31979661 39.8124707,5 39.4166667,5 C39.4002729,5 37.7768438,4.98107143 37.2299375,3.34553571 C37.132378,3.0538524 36.8584885,2.85712007 36.55,2.85714286 L6.45,2.85714286 C6.14154448,2.8571585 5.86770114,3.05388357 5.77015208,3.34553571 C5.23166667,4.95625 3.64523542,4.99901786 3.58333333,5 C3.18752926,5 2.86666667,5.31979661 2.86666667,5.71428571 L2.86666667,24.2857143 C2.86666667,24.6802034 3.18752926,25 3.58333333,25 Z M4.3,6.34151786 C5.44738154,6.09524113 6.41766725,5.3373064 6.93177917,4.28571429 L36.0682208,4.28571429 C36.5823541,5.33728921 37.5526301,6.09521636 38.7,6.34151786 L38.7,23.6584821 C37.5526301,23.9047836 36.5823541,24.6627108 36.0682208,25.7142857 L6.93177917,25.7142857 C6.41766725,24.6626936 5.44738154,23.9047589 4.3,23.6584821 L4.3,6.34151786 Z M9.31666667,11.4285714 L22.2166667,11.4285714 C22.6124707,11.4285714 22.9333333,11.1087748 22.9333333,10.7142857 L22.9333333,7.85714286 C22.9333333,7.46265375 22.6124707,7.14285714 22.2166667,7.14285714 L9.31666667,7.14285714 C8.9208626,7.14285714 8.6,7.46265375 8.6,7.85714286 L8.6,10.7142857 C8.6,11.1087748 8.9208626,11.4285714 9.31666667,11.4285714 Z M10.0333333,8.57142857 L21.5,8.57142857 L21.5,10 L10.0333333,10 L10.0333333,8.57142857 Z M6.45,13.5714286 C6.45,13.1769395 6.7708626,12.8571429 7.16666667,12.8571429 L24.3666667,12.8571429 C24.7624707,12.8571429 25.0833333,13.1769395 25.0833333,13.5714286 C25.0833333,13.9659177 24.7624707,14.2857143 24.3666667,14.2857143 L7.16666667,14.2857143 C6.7708626,14.2857143 6.45,13.9659177 6.45,13.5714286 Z M6.45,16.4285714 C6.45,16.0340823 6.7708626,15.7142857 7.16666667,15.7142857 L24.3666667,15.7142857 C24.7624707,15.7142857 25.0833333,16.0340823 25.0833333,16.4285714 C25.0833333,16.8230605 24.7624707,17.1428571 24.3666667,17.1428571 L7.16666667,17.1428571 C6.7708626,17.1428571 6.45,16.8230605 6.45,16.4285714 Z M20.7833333,19.2857143 C20.7833333,19.6802034 20.4624707,20 20.0666667,20 L11.4666667,20 C11.0708626,20 10.75,19.6802034 10.75,19.2857143 C10.75,18.8912252 11.0708626,18.5714286 11.4666667,18.5714286 L20.0666667,18.5714286 C20.4624707,18.5714286 20.7833333,18.8912252 20.7833333,19.2857143 Z M28.6666667,22.1428571 C28.6666561,22.4317668 28.8412665,22.6922333 29.1090733,22.8027957 C29.3768802,22.913358 29.6851406,22.8522417 29.8901062,22.6479464 L32.25,20.2958036 L34.6098938,22.6479464 C34.8148594,22.8522417 35.1231198,22.913358 35.3909267,22.8027957 C35.6587335,22.6922333 35.8333439,22.4317668 35.8333333,22.1428571 L35.8333333,15.6373214 C37.763048,13.6743578 37.7415651,10.527124 35.785232,8.59051048 C33.8288989,6.653897 30.6711011,6.653897 28.714768,8.59051048 C26.7584349,10.527124 26.736952,13.6743578 28.6666667,15.6373214 L28.6666667,22.1428571 Z M32.7567729,18.780625 C32.6223708,18.6466625 32.4400782,18.5714025 32.25,18.5714025 C32.0599218,18.5714025 31.8776292,18.6466625 31.7432271,18.780625 L30.1,20.4184821 L30.1,16.6595536 C31.4603871,17.3041083 33.0396129,17.3041083 34.4,16.6595536 L34.4,20.4184821 L32.7567729,18.780625 Z M32.25,8.57142857 C34.2290204,8.57142857 35.8333333,10.1704116 35.8333333,12.1428571 C35.8333333,14.1153027 34.2290204,15.7142857 32.25,15.7142857 C30.2709796,15.7142857 28.6666667,14.1153027 28.6666667,12.1428571 C28.6688883,10.1713295 30.2719006,8.57364281 32.25,8.57142857 Z M32.25,14.2857143 C33.4374122,14.2857143 34.4,13.3263245 34.4,12.1428571 C34.4,10.9593898 33.4374122,10 32.25,10 C31.0625878,10 30.1,10.9593898 30.1,12.1428571 C30.101333,13.3257737 31.0631404,14.2843857 32.25,14.2857143 Z M32.25,11.4285714 C32.6458041,11.4285714 32.9666667,11.748368 32.9666667,12.1428571 C32.9666667,12.5373462 32.6458041,12.8571429 32.25,12.8571429 C31.8541959,12.8571429 31.5333333,12.5373462 31.5333333,12.1428571 C31.5337777,11.7485516 31.8543801,11.4290143 32.25,11.4285714 Z M15.05,22.1428571 C15.05,22.5373462 14.7291374,22.8571429 14.3333333,22.8571429 L11.4666667,22.8571429 C11.0708626,22.8571429 10.75,22.5373462 10.75,22.1428571 C10.75,21.748368 11.0708626,21.4285714 11.4666667,21.4285714 L14.3333333,21.4285714 C14.7291374,21.4285714 15.05,21.748368 15.05,22.1428571 Z M20.7833333,22.1428571 C20.7833333,22.5373462 20.4624707,22.8571429 20.0666667,22.8571429 L17.2,22.8571429 C16.8041959,22.8571429 16.4833333,22.5373462 16.4833333,22.1428571 C16.4833333,21.748368 16.8041959,21.4285714 17.2,21.4285714 L20.0666667,21.4285714 C20.4624707,21.4285714 20.7833333,21.748368 20.7833333,22.1428571 Z" id="Shape"></path>
            </g>
        </g>
    </g>
</svg>