<?xml version="1.0" encoding="UTF-8" standalone="no"?>
<svg width="512px" height="512px" viewBox="0 0 512 512" version="1.1" xmlns="http://www.w3.org/2000/svg" xmlns:xlink="http://www.w3.org/1999/xlink">
    <!-- Generator: Sketch 50.2 (55047) - http://www.bohemiancoding.com/sketch -->
    <title>001-ayuda</title>
    <desc>Created with Sketch.</desc>
    <defs>
        <linearGradient x1="100%" y1="50%" x2="0%" y2="50%" id="linearGradient-1">
            <stop stop-color="#2AFFFF" offset="0%"></stop>
            <stop stop-color="#0068FF" offset="100%"></stop>
        </linearGradient>
    </defs>
    <g id="Page-1" stroke="none" stroke-width="1" fill="none" fill-rule="evenodd">
        <g id="001-ayuda" fill="url(#linearGradient-1)" fill-rule="nonzero">
            <path d="M315.854,285.303 C310.347,285.303 305.878,289.772 305.878,295.279 C305.878,300.786 310.347,305.255 315.854,305.255 C321.361,305.255 325.83,300.786 325.83,295.279 C325.83,289.772 321.36,285.303 315.854,285.303 Z" id="Shape"></path>
            <path d="M317.451,179.582 L295.033,166.637 C295.616,162.836 295.903,159.19 295.903,155.621 C295.903,152.052 295.617,148.406 295.033,144.605 L317.451,131.66 C322.221,128.905 323.855,122.805 321.101,118.033 L301.15,83.476 C299.827,81.185 297.649,79.513 295.093,78.828 C292.535,78.143 289.814,78.502 287.523,79.825 L265.016,92.821 C259.27,88.367 252.919,84.739 246.024,81.973 L246.024,52.871 C246.024,47.361 241.558,42.895 236.048,42.895 L196.145,42.895 C190.635,42.895 186.169,47.361 186.169,52.871 L186.169,81.988 C179.324,84.753 172.917,88.413 167.196,92.828 L144.669,79.826 C139.897,77.071 133.799,78.706 131.043,83.478 L111.092,118.034 C108.338,122.805 109.972,128.905 114.742,131.661 L137.16,144.606 C136.577,148.407 136.29,152.053 136.29,155.622 C136.29,159.191 136.576,162.837 137.16,166.638 L114.742,179.583 C109.972,182.337 108.338,188.437 111.092,193.209 L131.043,227.765 C133.798,232.536 139.899,234.171 144.669,231.417 L167.196,218.415 C172.917,222.829 179.323,226.489 186.169,229.255 L186.169,255.378 C186.169,260.888 190.635,265.354 196.145,265.354 L236.048,265.354 C241.558,265.354 246.024,260.888 246.024,255.378 L246.024,229.268 C252.918,226.504 259.27,222.876 265.016,218.42 L287.523,231.416 C289.813,232.739 292.538,233.099 295.093,232.413 C297.649,231.729 299.827,230.057 301.15,227.765 L321.101,193.209 C323.855,188.437 322.221,182.337 317.451,179.582 Z M288.859,209.148 L268.888,197.616 C265.07,195.411 260.258,195.974 257.053,199.001 C250.39,205.289 242.356,209.879 233.171,212.646 C228.956,213.915 226.072,217.796 226.072,222.198 L226.072,245.401 L206.121,245.401 L206.121,222.198 C206.121,217.797 203.236,213.915 199.022,212.646 C189.835,209.88 181.805,205.29 175.154,199.006 C171.95,195.977 167.136,195.411 163.316,197.616 L143.335,209.15 L133.359,191.871 L153.311,180.349 C157.132,178.142 159.049,173.688 158.025,169.396 C156.825,164.366 156.242,159.86 156.242,155.62 C156.242,151.379 156.825,146.873 158.025,141.844 C159.048,137.552 157.131,133.097 153.311,130.891 L133.359,119.369 L143.335,102.09 L163.316,113.624 C167.137,115.829 171.949,115.264 175.154,112.234 C181.805,105.95 189.834,101.361 199.022,98.594 C203.237,97.325 206.121,93.444 206.121,89.042 L206.121,62.847 L226.072,62.847 L226.072,89.043 C226.072,93.444 228.957,97.326 233.171,98.595 C242.356,101.36 250.39,105.952 257.053,112.24 C260.258,115.266 265.071,115.829 268.888,113.625 L288.859,102.093 L298.835,119.37 L278.883,130.892 C275.062,133.099 273.145,137.553 274.168,141.845 C275.368,146.875 275.951,151.381 275.951,155.621 C275.951,159.862 275.368,164.368 274.168,169.397 C273.145,173.69 275.062,178.144 278.883,180.35 L298.835,191.872 L288.859,209.148 Z" id="Shape"></path>
            <path d="M216.097,115.717 C194.095,115.717 176.194,133.617 176.194,155.62 C176.194,177.622 194.094,195.523 216.097,195.523 C238.099,195.523 256,177.623 256,155.62 C256,133.618 238.1,115.717 216.097,115.717 Z M216.097,175.571 C205.096,175.571 196.146,166.621 196.146,155.62 C196.146,144.619 205.096,135.669 216.097,135.669 C227.098,135.669 236.048,144.619 236.048,155.62 C236.049,166.621 227.099,175.571 216.097,175.571 Z" id="Shape"></path>
            <path d="M275.951,285.303 L136.292,285.303 C130.782,285.303 126.316,289.769 126.316,295.279 C126.316,300.789 130.782,305.255 136.292,305.255 L275.951,305.255 C281.461,305.255 285.927,300.789 285.927,295.279 C285.927,289.769 281.461,285.303 275.951,285.303 Z" id="Shape"></path>
            <path d="M481.45,165.596 L445.538,165.596 L445.538,29.927 C445.537,13.425 432.112,0 415.61,0 L30.55,0 C14.049,0 0.623,13.425 0.623,29.927 L0.623,315.23 C0.623,331.732 14.048,345.157 30.55,345.157 L86.414,345.157 L86.414,409.55 C86.414,413.324 88.543,416.773 91.916,418.466 C93.331,419.175 94.863,419.525 96.389,419.525 C98.499,419.525 100.597,418.857 102.352,417.547 L146.268,384.808 L146.268,420.972 C146.268,437.474 159.693,450.899 176.195,450.899 L358.792,450.899 L429.166,509.68 C430.996,511.208 433.268,511.999 435.563,511.999 C436.997,511.999 438.438,511.69 439.787,511.059 C443.295,509.418 445.537,505.896 445.537,502.023 L445.537,450.898 L481.449,450.898 C497.951,450.898 511.376,437.473 511.376,420.971 L511.376,195.521 C511.377,179.021 497.951,165.596 481.45,165.596 Z M106.365,389.671 L106.365,335.182 C106.365,329.672 101.899,325.206 96.389,325.206 L30.55,325.206 C25.049,325.206 20.574,320.731 20.574,315.23 L20.574,29.927 C20.574,24.426 25.049,19.951 30.55,19.951 L415.61,19.951 C421.111,19.951 425.586,24.426 425.586,29.927 L425.586,315.23 C425.586,320.731 421.111,325.206 415.61,325.206 L196.146,325.206 C193.997,325.206 191.906,325.899 190.184,327.184 L106.365,389.671 Z M491.425,420.972 C491.425,426.473 486.95,430.948 481.449,430.948 L435.561,430.948 C430.051,430.948 425.585,435.414 425.585,440.924 L425.585,480.695 L368.805,433.269 C367.011,431.771 364.748,430.95 362.41,430.95 L176.195,430.95 C170.694,430.95 166.219,426.475 166.219,420.974 L166.219,369.937 L199.455,345.158 L415.61,345.158 C432.112,345.158 445.537,331.733 445.537,315.231 L445.537,185.547 L481.449,185.547 C486.95,185.547 491.425,190.022 491.425,195.523 L491.425,420.972 Z" id="Shape"></path>
        </g>
    </g>
</svg>