<?xml version="1.0" encoding="UTF-8" standalone="no"?>
<svg width="37px" height="53px" viewBox="0 0 37 53" version="1.1" xmlns="http://www.w3.org/2000/svg" xmlns:xlink="http://www.w3.org/1999/xlink">
    <!-- Generator: Sketch 50.2 (55047) - http://www.bohemiancoding.com/sketch -->
    <title>Apoderados-icon</title>
    <desc>Created with Sketch.</desc>
    <defs>
        <linearGradient x1="100%" y1="50%" x2="0%" y2="50%" id="linearGradient-1">
            <stop stop-color="#2AFFFF" offset="0%"></stop>
            <stop stop-color="#0068FF" offset="100%"></stop>
        </linearGradient>
    </defs>
    <g id="Page-1" stroke="none" stroke-width="1" fill="none" fill-rule="evenodd">
        <g id="Landing-Page-Cubo" transform="translate(-146.000000, -4603.000000)" fill="url(#linearGradient-1)" fill-rule="nonzero">
            <path d="M168.02381,4621.55072 C168.02381,4621.06287 168.418225,4620.6674 168.904762,4620.6674 C169.391298,4620.6674 169.785714,4621.06287 169.785714,4621.55072 C169.785714,4622.03856 169.391298,4622.43403 168.904762,4622.43403 C168.418225,4622.43403 168.02381,4622.03856 168.02381,4621.55072 Z M160.095238,4622.43403 C160.581775,4622.43403 160.97619,4622.03856 160.97619,4621.55072 C160.97619,4621.06287 160.581775,4620.6674 160.095238,4620.6674 C159.608702,4620.6674 159.214286,4621.06287 159.214286,4621.55072 C159.214286,4622.03856 159.608702,4622.43403 160.095238,4622.43403 Z M163.619048,4624.20066 L165.380952,4624.20066 C165.867489,4624.20066 166.261905,4623.80519 166.261905,4623.31735 C166.261905,4622.8295 165.867489,4622.43403 165.380952,4622.43403 L164.5,4622.43403 L164.5,4621.55072 C164.5,4621.06287 164.105584,4620.6674 163.619048,4620.6674 C163.132511,4620.6674 162.738095,4621.06287 162.738095,4621.55072 L162.738095,4623.31735 C162.738095,4623.80519 163.132511,4624.20066 163.619048,4624.20066 Z M164.5,4628.61724 C168.346679,4628.61724 169.663813,4625.55412 169.717991,4625.42372 C169.839046,4625.1324 169.795904,4624.79846 169.604817,4624.54768 C169.413731,4624.29691 169.103729,4624.1674 168.791588,4624.20794 C168.479447,4624.24848 168.212587,4624.45291 168.091533,4624.74423 C168.082833,4624.76532 167.185253,4626.85061 164.5,4626.85061 C161.861988,4626.85061 160.948881,4624.83687 160.906155,4624.73882 C160.714417,4624.29431 160.201466,4624.0875 159.756201,4624.27517 C159.310935,4624.46285 159.099416,4624.97503 159.282009,4625.42339 C159.336187,4625.55412 160.653321,4628.61724 164.5,4628.61724 Z M146,4655.11669 L146,4635.68376 C146.00269,4633.58592 147.474432,4631.77843 149.52381,4631.35606 L149.52381,4628.61724 C149.523523,4627.40218 150.023918,4626.241 150.906574,4625.40848 C149.295985,4624.51054 148.413346,4622.70201 148.694467,4620.87587 C148.975587,4619.04974 150.361008,4617.59224 152.166667,4617.22302 C152.166374,4616.40157 152.230863,4615.67041 152.359375,4614.94926 C149.710416,4612.17417 149.758387,4607.78534 152.467368,4605.06913 C155.176348,4602.35291 159.553432,4602.30486 162.321074,4604.96096 C165.915732,4604.31639 169.610508,4605.3013 172.411337,4607.65069 C175.212166,4610.00008 176.831379,4613.47266 176.833333,4617.13414 C178.638992,4617.59224 180.024413,4619.04974 180.305533,4620.87587 C180.586654,4622.70201 179.704015,4624.51054 178.093426,4625.40848 C178.976082,4626.241 179.476477,4627.40218 179.47619,4628.61724 L179.47619,4631.35606 C181.525544,4631.77847 182.997268,4633.58594 183,4635.68376 L183,4655.11669 C183,4655.60453 182.605584,4656 182.119048,4656 L146.880952,4656 C146.394416,4656 146,4655.60453 146,4655.11669 Z M153.928571,4618.90077 L153.928571,4620.6674 C153.928571,4626.5215 158.661561,4631.26718 164.5,4631.26718 C170.338439,4631.26718 175.071429,4626.5215 175.071429,4620.6674 L175.071429,4618.90077 L153.928571,4618.90077 Z M177.714286,4628.61724 C177.712636,4627.36446 176.837642,4626.2834 175.615307,4626.02393 C174.566415,4628.19845 172.909452,4630.02017 170.846271,4631.26718 L177.714286,4631.26718 L177.714286,4628.61724 Z M152.811524,4647.16685 C152.455555,4647.16728 152.167091,4647.45651 152.166667,4647.81344 L152.166667,4650.05352 C152.167091,4650.41045 152.455555,4650.69968 152.811524,4650.70011 L155.690476,4650.70011 L155.690476,4647.16685 L152.811524,4647.16685 Z M156.571429,4652.46674 L156.571429,4654.23337 L163.619048,4654.23337 L163.619048,4648.25863 L158.426384,4637.84545 C158.365719,4637.72288 158.333555,4637.58761 158.333333,4637.45039 L158.333333,4633.03381 L156.571429,4633.03381 L156.571429,4645.40022 C157.057965,4645.40022 157.452381,4645.79569 157.452381,4646.28354 L157.452381,4651.58343 C157.452381,4652.07127 157.057965,4652.46674 156.571429,4652.46674 Z M166.226777,4642.61215 L165.515628,4638.3337 L163.484372,4638.3337 L162.773223,4642.61215 L164.5,4646.07496 L166.226777,4642.61215 Z M163.619048,4636.56707 L165.380952,4636.56707 L165.380952,4634.28293 L164.5,4633.39961 L163.619048,4634.28293 L163.619048,4636.56707 Z M160.095238,4633.03381 L160.095238,4635.31795 L162.373271,4633.03381 L160.095238,4633.03381 Z M160.286185,4637.62484 L161.433515,4639.92565 L161.857143,4637.37729 L161.857143,4636.04956 L160.286185,4637.62484 Z M168.713815,4637.62484 L167.142857,4636.04967 L167.142857,4637.37696 L167.566485,4639.92554 L168.713815,4637.62484 Z M168.904762,4633.03381 L166.626729,4633.03381 L168.904762,4635.31795 L168.904762,4633.03381 Z M165.380952,4654.23337 L172.428571,4654.23337 L172.428571,4652.46674 C171.942035,4652.46674 171.547619,4652.07127 171.547619,4651.58343 L171.547619,4646.28354 C171.547619,4645.79569 171.942035,4645.40022 172.428571,4645.40022 L172.428571,4633.03381 L170.666667,4633.03381 L170.666667,4637.45039 C170.666359,4637.58742 170.634198,4637.7225 170.572735,4637.8449 L165.380952,4648.25863 L165.380952,4654.23337 Z M176.188476,4650.70011 C176.544445,4650.69968 176.832909,4650.41045 176.833333,4650.05352 L176.833333,4647.81344 C176.832909,4647.45651 176.544445,4647.16728 176.188476,4647.16685 L173.309524,4647.16685 L173.309524,4650.70011 L176.188476,4650.70011 Z M174.190476,4654.23337 L175.952381,4654.23337 L175.952381,4652.46674 L174.190476,4652.46674 L174.190476,4654.23337 Z M175.952381,4633.03381 L174.190476,4633.03381 L174.190476,4645.40022 L175.952381,4645.40022 L175.952381,4633.03381 Z M151.285714,4628.61724 L151.285714,4631.26718 L158.153729,4631.26718 C156.090548,4630.02017 154.433585,4628.19845 153.384693,4626.02393 C152.162358,4626.2834 151.287364,4627.36446 151.285714,4628.61724 Z M153.047619,4633.03381 L153.047619,4645.40022 L154.809524,4645.40022 L154.809524,4633.03381 L153.047619,4633.03381 Z M153.047619,4654.23337 L154.809524,4654.23337 L154.809524,4652.46674 L153.047619,4652.46674 L153.047619,4654.23337 Z M178.595238,4633.03381 L177.714286,4633.03381 L177.714286,4645.94865 C178.271959,4646.40634 178.595322,4647.09083 178.595238,4647.81344 L178.595238,4650.05352 C178.595322,4650.77613 178.271959,4651.46062 177.714286,4651.91831 L177.714286,4654.23337 L181.238095,4654.23337 L181.238095,4635.68376 C181.236457,4634.22091 180.054169,4633.03545 178.595238,4633.03381 Z M176.833333,4619.0527 L176.833333,4620.6674 C176.834,4621.85441 176.663686,4623.0353 176.327667,4624.1735 C177.531209,4623.99973 178.461193,4623.02499 178.581002,4621.81171 C178.700811,4620.59842 177.979522,4619.45974 176.833333,4619.0527 Z M164.5,4606.53436 C158.664278,4606.54093 153.935126,4611.28277 153.928571,4617.13414 L156.571429,4617.13414 L156.571429,4616.25083 C156.571429,4615.76298 156.965844,4615.36751 157.452381,4615.36751 C157.938918,4615.36751 158.333333,4615.76298 158.333333,4616.25083 L158.333333,4617.13414 L160.97619,4617.13414 L160.97619,4616.25083 C160.97619,4615.76298 161.370606,4615.36751 161.857143,4615.36751 C162.343679,4615.36751 162.738095,4615.76298 162.738095,4616.25083 L162.738095,4617.13414 L166.261905,4617.13414 L166.261905,4616.25083 C166.261905,4615.76298 166.656321,4615.36751 167.142857,4615.36751 C167.629394,4615.36751 168.02381,4615.76298 168.02381,4616.25083 L168.02381,4617.13414 L170.666667,4617.13414 L170.666667,4616.25083 C170.666667,4615.76298 171.061082,4615.36751 171.547619,4615.36751 C172.034156,4615.36751 172.428571,4615.76298 172.428571,4616.25083 L172.428571,4617.13414 L175.071429,4617.13414 C175.064874,4611.28277 170.335722,4606.54093 164.5,4606.53436 Z M160.206018,4605.54151 C158.122184,4604.26973 155.441154,4604.59199 153.716167,4606.32161 C151.991181,4608.05122 151.669777,4610.73944 152.938161,4612.82886 C154.19516,4609.45981 156.845981,4606.80188 160.206018,4605.54151 Z M150.404762,4621.55072 C150.406573,4622.86813 151.371987,4623.98478 152.672333,4624.1735 C152.336314,4623.0353 152.166,4621.85441 152.166667,4620.6674 L152.166667,4619.0527 C151.111665,4619.42806 150.406205,4620.42826 150.404762,4621.55072 Z M147.761905,4654.23337 L151.285714,4654.23337 L151.285714,4651.91831 C150.728041,4651.46062 150.404678,4650.77613 150.404762,4650.05352 L150.404762,4647.81344 C150.404678,4647.09083 150.728041,4646.40634 151.285714,4645.94865 L151.285714,4633.03381 L150.404762,4633.03381 C148.945831,4633.03545 147.763543,4634.22091 147.761905,4635.68376 L147.761905,4654.23337 Z" id="Apoderados-icon"></path>
        </g>
    </g>
</svg>