<?xml version="1.0" encoding="UTF-8" standalone="no"?>
<svg width="512px" height="504px" viewBox="0 0 512 504" version="1.1" xmlns="http://www.w3.org/2000/svg" xmlns:xlink="http://www.w3.org/1999/xlink">
    <!-- Generator: Sketch 50.2 (55047) - http://www.bohemiancoding.com/sketch -->
    <title>001-settings</title>
    <desc>Created with Sketch.</desc>
    <defs>
        <linearGradient x1="100%" y1="50%" x2="0%" y2="50%" id="linearGradient-1">
            <stop stop-color="#2AFFFF" offset="0%"></stop>
            <stop stop-color="#0068FF" offset="100%"></stop>
        </linearGradient>
    </defs>
    <g id="Page-1" stroke="none" stroke-width="1" fill="none" fill-rule="evenodd">
        <g id="001-settings" fill="url(#linearGradient-1)" fill-rule="nonzero">
            <g id="Group">
                <path d="M485.884,45.597 L276.061,45.597 L259.212,28.749 C255.539,25.077 250.645,23.054 245.431,23.054 C240.217,23.054 235.323,25.077 231.636,28.763 L230.079,30.326 C223.42,26.744 216.457,23.858 209.253,21.693 L209.253,19.477 C209.253,8.737 200.516,7.10542736e-15 189.775,7.10542736e-15 L163.189,7.10542736e-15 C152.45,7.10542736e-15 143.712,8.737 143.712,19.477 L143.712,21.693 C136.508,23.858 129.544,26.745 122.886,30.326 L121.316,28.749 C117.643,25.076 112.749,23.053 107.534,23.053 C102.32,23.053 97.426,25.076 93.753,28.748 L76.906,45.597 L26.116,45.597 C11.716,45.597 9.23705556e-14,57.313 9.23705556e-14,71.713 L9.23705556e-14,366.403 C9.23705556e-14,380.803 11.716,392.519 26.116,392.519 L171.678,392.519 L151.523,433.381 L135.127,433.381 C115.657,433.381 99.817,449.22 99.817,468.69 L99.817,494 C99.817,499.523 104.295,504 109.817,504 L358.031,504 L473.2,504 C494.595,504 512,484.787 512,461.171 L512,222.151 L512,71.713 C512,57.313 500.284,45.597 485.884,45.597 Z M85.354,109.694 C87.705,99.28 91.791,89.427 97.498,80.409 C99.996,76.463 99.43,71.313 96.135,68.004 L89.472,61.315 L107.534,43.253 L114.167,49.914 C117.475,53.234 122.643,53.813 126.602,51.307 C135.67,45.567 145.526,41.483 155.893,39.168 C160.463,38.147 163.713,34.091 163.713,29.408 L163.713,20 L189.253,20 L189.253,29.408 C189.253,34.091 192.503,38.147 197.073,39.168 C207.44,41.483 217.295,45.567 226.363,51.307 C230.323,53.813 235.491,53.234 238.797,49.914 L245.432,43.253 L263.494,61.315 L256.831,68.004 C253.535,71.313 252.969,76.463 255.467,80.409 C261.174,89.427 265.26,99.28 267.611,109.694 C268.64,114.254 272.691,117.492 277.366,117.492 L286.774,117.492 L286.774,143.032 L277.366,143.032 C272.691,143.032 268.64,146.27 267.611,150.83 C265.254,161.273 261.168,171.136 255.467,180.143 C252.969,184.089 253.535,189.239 256.831,192.548 L263.479,199.223 L245.431,217.272 L238.783,210.624 C235.474,207.316 230.316,206.744 226.363,209.246 C217.296,214.985 207.441,219.07 197.073,221.385 C192.503,222.406 189.253,226.462 189.253,231.145 L189.253,240.552 L163.713,240.552 L163.713,231.145 C163.713,226.462 160.463,222.406 155.893,221.385 C145.525,219.07 135.669,214.986 126.602,209.246 C122.65,206.745 117.492,207.317 114.182,210.625 L107.535,217.272 L89.487,199.223 L96.135,192.548 C99.43,189.239 99.996,184.09 97.498,180.143 C91.798,171.136 87.712,161.273 85.354,150.83 C84.325,146.27 80.274,143.032 75.599,143.032 L66.192,143.032 L66.192,117.492 L75.6,117.492 C80.274,117.492 84.325,114.254 85.354,109.694 Z M20,366.403 L20,344.54 L319.232,344.54 L319.232,372.52 L26.116,372.52 C22.744,372.52 20,369.776 20,366.403 Z M193.98,392.52 L319.233,392.52 L319.233,433.382 L173.825,433.382 L193.98,392.52 Z M119.818,468.69 C119.818,460.249 126.686,453.381 135.128,453.381 L157.691,453.381 C157.705,453.381 157.72,453.383 157.734,453.383 C157.746,453.383 157.757,453.381 157.769,453.381 L319.232,453.381 L319.232,461.171 C319.232,469.559 321.437,477.386 325.227,484 L119.817,484 L119.817,468.69 L119.818,468.69 Z M492,461.171 C492,473.546 483.392,484 473.201,484 L358.032,484 C347.842,484 339.232,473.546 339.232,461.171 L339.232,222.151 C339.232,209.776 347.841,199.322 358.032,199.322 L368.319,199.322 L368.319,221.81 C368.319,232.753 377.234,241.656 388.193,241.656 L443.039,241.656 C453.998,241.656 462.913,232.753 462.913,221.81 L462.913,199.322 L473.201,199.322 C483.391,199.322 492,209.776 492,222.151 L492,461.171 Z M388.319,221.656 L388.319,199.323 L442.913,199.323 L442.913,221.656 L388.319,221.656 Z M492,184.703 C486.427,181.28 480.018,179.323 473.201,179.323 L358.032,179.323 C336.637,179.323 319.232,198.536 319.232,222.152 L319.232,324.54 L20,324.54 L20,71.713 C20,68.398 22.801,65.597 26.116,65.597 L69.769,65.597 C70.544,69.079 72.26,72.387 74.955,75.081 L76.535,76.667 C72.964,83.308 70.075,90.272 67.897,97.492 L65.697,97.492 C54.942,97.492 46.192,106.242 46.192,116.997 L46.192,143.555 C46.192,154.295 54.942,163.032 65.697,163.032 L67.896,163.032 C70.076,170.268 72.965,177.242 76.536,183.885 L74.97,185.457 C67.379,193.049 67.379,205.401 74.97,212.991 L93.753,231.775 C101.354,239.375 113.718,239.374 121.316,231.775 L122.872,230.219 C129.534,233.803 136.504,236.693 143.713,238.86 L143.713,241.076 C143.713,251.815 152.45,260.553 163.19,260.553 L189.776,260.553 C200.516,260.553 209.254,251.816 209.254,241.076 L209.254,238.86 C216.463,236.693 223.432,233.804 230.094,230.219 L231.651,231.776 C239.249,239.373 251.613,239.375 259.214,231.776 L277.997,212.993 C285.588,205.402 285.588,193.05 278.011,185.472 L276.431,183.885 C280,177.242 282.89,170.269 285.07,163.033 L287.269,163.033 C298.025,163.033 306.775,154.296 306.775,143.556 L306.775,116.998 C306.775,106.243 298.025,97.493 287.269,97.493 L285.069,97.493 C282.891,90.273 280.003,83.309 276.431,76.668 L277.997,75.096 C280.697,72.396 282.418,69.083 283.193,65.597 L485.885,65.597 C489.2,65.597 492.001,68.398 492.001,71.713 L492.001,184.703 L492,184.703 Z" id="Shape"></path>
                <path d="M176.469,199.946 C214.901,199.946 246.167,168.692 246.167,130.276 C246.167,91.86 214.9,60.606 176.469,60.606 C138.053,60.606 106.799,91.86 106.799,130.276 C106.799,168.692 138.053,199.946 176.469,199.946 Z M176.469,80.606 C203.872,80.606 226.167,102.888 226.167,130.276 C226.167,157.664 203.872,179.946 176.469,179.946 C149.081,179.946 126.799,157.664 126.799,130.276 C126.799,102.888 149.081,80.606 176.469,80.606 Z" id="Shape"></path>
            </g>
            <path d="M415.603,453.381 C410.081,453.381 405.588,448.904 405.588,443.381 C405.588,437.858 410.051,433.381 415.573,433.381 L415.602,433.381 C421.124,433.381 425.602,437.858 425.602,443.381 C425.602,448.904 421.125,453.381 415.603,453.381 Z" id="Shape"></path>
        </g>
    </g>
</svg>