<?xml version="1.0" encoding="UTF-8" standalone="no"?>
<svg width="23px" height="23px" viewBox="0 0 23 23" version="1.1" xmlns="http://www.w3.org/2000/svg" xmlns:xlink="http://www.w3.org/1999/xlink">
    <!-- Generator: Sketch 50.2 (55047) - http://www.bohemiancoding.com/sketch -->
    <title>instagram</title>
    <desc>Created with Sketch.</desc>
    <defs></defs>
    <g id="Page-1" stroke="none" stroke-width="1" fill="none" fill-rule="evenodd">
        <g id="Landing-Page-Cubo" transform="translate(-989.000000, -6174.000000)" fill="#FFFFFF" fill-rule="nonzero">
            <g id="instagram" transform="translate(989.000000, 6174.000000)">
                <path d="M22.9080547,6.76074219 C22.8542885,5.53890227 22.6570876,4.69889829 22.3745964,3.97102358 C22.0831734,3.19840242 21.6348303,2.50667571 21.0474309,1.93164063 C20.4735167,1.34765625 19.7785849,0.893875145 19.0164017,0.606445312 C18.2857425,0.323402416 17.4517544,0.125816334 16.2322962,0.071945168 C15.0037311,0.0135116465 14.6137077,0 11.4977233,0 C8.38173886,0 7.9917154,0.0135116465 6.76770378,0.0673828125 C5.54824561,0.121253979 4.70987907,0.31901548 3.9835983,0.601882957 C3.21230814,0.893875145 2.52192982,1.34309389 1.94801567,1.93164063 C1.36516966,2.50667571 0.912448199,3.20296477 0.625403581,3.96663665 C0.342912425,4.69889829 0.145711501,5.53433992 0.091945347,6.75617983 C0.033625731,7.98714446 0.020140423,8.37792969 0.020140423,11.5 C0.020140423,14.6220703 0.033625731,15.0128555 0.087391885,16.2392578 C0.141158039,17.4610977 0.338534041,18.3011017 0.621025197,19.0289764 C0.912448199,19.8015976 1.36516966,20.4933243 1.94801567,21.0683594 C2.52192982,21.6523438 3.2168616,22.1061249 3.97904483,22.3935547 C4.70987907,22.6765976 5.54369215,22.8741837 6.76332539,22.9280548 C7.98716194,22.9821014 8.37736048,22.9954376 11.4933449,22.9954376 C14.6093293,22.9954376 14.9993528,22.9821014 16.2233644,22.9280548 C17.4428225,22.8741837 18.2811891,22.6765976 19.0074699,22.3935547 C20.5498751,21.7960587 21.7693333,20.5742188 22.3656646,19.0289764 C22.6479807,18.2967148 22.8453567,17.4610977 22.8991228,16.2392578 C22.952889,15.0128555 22.9663743,14.6220703 22.9663743,11.5 C22.9663743,8.37792969 22.9618208,7.98714446 22.9080547,6.76074219 Z M20.8412981,16.1494141 C20.7919103,17.2724609 20.6036413,17.8789063 20.4467212,18.2832031 C20.0610761,19.284996 19.2675439,20.0800781 18.2677038,20.4664764 C17.864195,20.623703 17.2545535,20.8123398 16.1380741,20.8616486 C14.9275478,20.9156952 14.564495,20.9290314 11.5022767,20.9290314 C8.44005848,20.9290314 8.07245217,20.9156952 6.86630424,20.8616486 C5.74544654,20.8123398 5.14018338,20.623703 4.73667461,20.4664764 C4.23911884,20.2822266 3.78622229,19.9902344 3.41861598,19.6083984 C3.03752437,19.2355118 2.74610136,18.786293 2.56221067,18.2877655 C2.40529059,17.8834686 2.21702151,17.2724609 2.16780882,16.1539764 C2.11386759,14.9410858 2.10055736,14.5771484 2.10055736,11.5089493 C2.10055736,8.44075014 2.11386759,8.07242585 2.16780882,6.86409758 C2.21702151,5.74105071 2.40529059,5.1346054 2.56221067,4.73030852 C2.74610136,4.23160554 3.03752437,3.77799986 3.42316945,3.40950014 C3.79515414,3.02766421 4.24349722,2.73567202 4.74122807,2.55159758 C5.14473684,2.39437102 5.75455346,2.20573423 6.8708577,2.15625 C8.08138402,2.10237883 8.44461194,2.08886719 11.5066551,2.08886719 C14.5734268,2.08886719 14.9364797,2.10237883 16.1426276,2.15625 C17.2634853,2.20573423 17.8687485,2.39437102 18.2722572,2.55159758 C18.769813,2.73567202 19.2227096,3.02766421 19.5903159,3.40950014 C19.9714075,3.78238679 20.2628305,4.23160554 20.4467212,4.73030852 C20.6036413,5.1346054 20.7919103,5.74543764 20.8412981,6.86409758 C20.8950643,8.07698821 20.9085496,8.44075014 20.9085496,11.5089493 C20.9085496,14.5771484 20.8950643,14.9365234 20.8412981,16.1494141 Z" id="Shape"></path>
                <path d="M11.4977233,5.59277344 C8.24285756,5.59277344 5.60201177,8.23860171 5.60201177,11.5 C5.60201177,14.7613983 8.24285756,17.4072266 11.4977233,17.4072266 C14.7527641,17.4072266 17.3934348,14.7613983 17.3934348,11.5 C17.3934348,8.23860171 14.7527641,5.59277344 11.4977233,5.59277344 Z M11.4977233,15.331871 C9.38613241,15.331871 7.67332178,13.6158905 7.67332178,11.5 C7.67332178,9.38410952 9.38613241,7.66812898 11.4977233,7.66812898 C13.6094892,7.66812898 15.3221248,9.38410952 15.3221248,11.5 C15.3221248,13.6158905 13.6094892,15.331871 11.4977233,15.331871 Z" id="Shape"></path>
                <path d="M19.0030915,5.35921477 C19.0030915,6.12078093 18.3867949,6.73828125 17.6265382,6.73828125 C16.8664565,6.73828125 16.2501599,6.12078093 16.2501599,5.35921477 C16.2501599,4.59747314 16.8664565,3.98014829 17.6265382,3.98014829 C18.3867949,3.98014829 19.0030915,4.59747314 19.0030915,5.35921477 Z" id="Shape"></path>
            </g>
        </g>
    </g>
</svg>