<?xml version="1.0" encoding="UTF-8" standalone="no"?>
<svg width="28px" height="20px" viewBox="0 0 28 20" version="1.1" xmlns="http://www.w3.org/2000/svg" xmlns:xlink="http://www.w3.org/1999/xlink">
    <!-- Generator: Sketch 50.2 (55047) - http://www.bohemiancoding.com/sketch -->
    <title>youtube</title>
    <desc>Created with Sketch.</desc>
    <defs></defs>
    <g id="Page-1" stroke="none" stroke-width="1" fill="none" fill-rule="evenodd">
        <g id="Landing-Page-Cubo" transform="translate(-1038.000000, -6175.000000)" fill="#FFFFFF" fill-rule="nonzero">
            <g id="youtube" transform="translate(1038.000000, 6175.000000)">
                <path d="M27.423099,3.1295221 C27.1004421,1.90578309 26.1546883,0.94112312 24.9553208,0.611608 C22.7642278,0 13.9996848,0 13.9996848,0 C13.9996848,0 5.23548359,0 3.04439057,0.588419864 C1.86809438,0.917586313 0.899269308,1.90595743 0.576612445,3.1295221 C0,5.36464597 0,10 0,10 C0,10 0,14.6587165 0.576612445,16.8704779 C0.899611084,18.0940426 1.84502304,19.0587025 3.04456146,19.3882177 C5.25855489,20 14.0000266,20 14.0000266,20 C14.0000266,20 22.7642278,20 24.9553208,19.4115801 C26.1548593,19.0822393 27.1004421,18.1175794 27.4234407,16.8940147 C27.9998823,14.6587165 27.9998823,10.0235368 27.9998823,10.0235368 C27.9998823,10.0235368 28.0229536,5.36464597 27.423099,3.1295221 Z M11.2092498,14.2823021 L11.2092498,5.71769794 L18.4973984,10 L11.2092498,14.2823021 Z" id="Shape"></path>
            </g>
        </g>
    </g>
</svg>